<svg id="Calque_1" data-name="Calque 1" xmlns="http://www.w3.org/2000/svg" xmlns:xlink="http://www.w3.org/1999/xlink" viewBox="0 0 739 1023">
  <defs>
    <style>
      .cls-1, .cls-12 {
        fill: none;
      }

      .cls-2 {
        fill: #49728e;
      }

      .cls-3 {
        fill: #333;
      }

      .cls-13, .cls-14, .cls-3, .cls-4, .cls-5, .cls-6 {
        stroke: #000;
      }

      .cls-12, .cls-13, .cls-14, .cls-3, .cls-4, .cls-5, .cls-6 {
        stroke-miterlimit: 10;
      }

      .cls-12, .cls-3, .cls-4, .cls-5, .cls-6 {
        stroke-width: 2px;
      }

      .cls-4 {
        fill: url(#Dégradé_sans_nom_14);
      }

      .cls-5 {
        fill: #ccc;
      }

      .cls-6 {
        fill: #fff;
      }

      .cls-7 {
        clip-path: url(#clip-path);
      }

      .cls-8 {
        fill: #b61d2a;
      }

      .cls-9 {
        fill: #fffefe;
      }

      .cls-10 {
        fill: #e9afb9;
      }

      .cls-11 {
        font-size: 14.8px;
        fill: #932626;
        font-family: Ubuntu-Medium, Ubuntu;
      }

      .cls-12 {
        stroke: #1a1a1a;
      }

      .cls-13, .cls-15 {
        fill: #999;
      }

      .cls-14 {
        fill: #757575;
      }
    </style>
    <radialGradient id="Dégradé_sans_nom_14" data-name="Dégradé sans nom 14" cx="333.97" cy="511.85" r="38.33" gradientTransform="translate(0 307.11) scale(1 0.4)" gradientUnits="userSpaceOnUse">
      <stop offset="0" stop-color="#4d4d4d"/>
      <stop offset="1"/>
    </radialGradient>
    <clipPath id="clip-path" transform="translate(0 0)">
      <rect class="cls-1" x="462.77" y="201.49" width="30.14" height="30.14"/>
    </clipPath>
  </defs>
  <title>103</title>
  <rect class="cls-2" x="216.5" width="522.5" height="1023"/>
  <rect class="cls-2" width="250" height="1023"/>
  <circle class="cls-3" cx="303.24" cy="511.85" r="21.17"/>
  <rect class="cls-4" x="295.39" y="503.85" width="77.16" height="16.01" rx="8" ry="8"/>
  <rect class="cls-5" x="424.45" y="188.28" width="105.89" height="90.5" rx="3" ry="3"/>
  <rect class="cls-6" x="434.87" y="188.28" width="85.06" height="90.5"/>
  <g>
    <g class="cls-7">
      <path class="cls-8" d="M488.54,211.29a1.59,1.59,0,0,0-1.58-1.67,1.63,1.63,0,0,0-1.64,1.63,1.56,1.56,0,0,0,1.56,1.6,1.52,1.52,0,0,0,1.66-1.56Zm-5.17-2.82h-.13c0,.14-.08.27-.1.41q-1.21,7.8-2.41,15.6c-.06.41.05.57.48.64a14,14,0,0,1,2.16.46c.52.16.72,0,.92-.46.78-1.82,1.62-3.61,2.43-5.42l1.6-3.58-.13-.08L484,219.2l-.67-10.73Zm-16.09,7.41c.16.4.23.58.31.76,1.26,2.8,2.55,5.58,3.77,8.4.27.62.52.7,1.11.48a7.34,7.34,0,0,1,1.9-.4c.58,0,.67-.26.59-.78-.6-3.76-1.17-7.53-1.75-11.3-.24-1.54-.48-3.07-.72-4.61h-.16l-.66,10.75-4.38-3.32Zm10.57,1.48-2.17-4.49q-1-2-1.94-4c-.07-.15-.14-.39-.35-.33s-.15.32-.11.51c.11.49.22,1,.3,1.47q1,6.9,1.95,13.8c.06.44.16.6.64.58,1.12,0,2.25,0,3.37,0,.48,0,.58-.14.64-.58.62-4.45,1.29-8.9,1.9-13.36a5.21,5.21,0,0,0,.12-2.56l-4.35,8.94Zm0,14.27a15.07,15.07,0,1,1,15.12-15.11,15,15,0,0,1-15.12,15.11Z" transform="translate(0 0)"/>
    </g>
    <path class="cls-9" d="M477.84,217.36l4.35-8.94a5.21,5.21,0,0,1-.12,2.56c-.61,4.46-1.28,8.9-1.9,13.36-.06.44-.17.6-.64.58-1.12,0-2.25,0-3.37,0-.48,0-.58-.14-.64-.58q-.95-6.9-1.95-13.8c-.07-.49-.19-1-.3-1.47,0-.2-.17-.43.11-.51s.28.18.35.33q1,2,1.94,4l2.17,4.49Z" transform="translate(0 0)"/>
    <path class="cls-9" d="M467.27,215.88l4.38,3.32.66-10.75h.16c.24,1.53.48,3.07.72,4.61.58,3.77,1.15,7.54,1.75,11.3.08.52,0,.74-.59.78a7.34,7.34,0,0,0-1.9.4c-.59.21-.84.13-1.11-.48-1.22-2.82-2.51-5.6-3.77-8.4-.08-.18-.15-.36-.31-.76Z" transform="translate(0 0)"/>
    <path class="cls-10" d="M483.36,208.47,484,219.2l4.16-3.16.13.08-1.6,3.58c-.81,1.81-1.65,3.6-2.43,5.42-.21.48-.4.62-.92.46a14,14,0,0,0-2.16-.46c-.43-.06-.55-.23-.48-.64q1.21-7.8,2.41-15.6c0-.14.07-.27.1-.41Z" transform="translate(0 0)"/>
    <path class="cls-10" d="M488.54,211.29a1.52,1.52,0,0,1-1.66,1.56,1.56,1.56,0,0,1-1.56-1.6,1.63,1.63,0,0,1,1.64-1.63,1.59,1.59,0,0,1,1.58,1.67Z" transform="translate(0 0)"/>
  </g>
  <text class="cls-11" transform="translate(446.2 254.53)">Salle 103</text>
  <line class="cls-12" x1="206" x2="206" y2="1023"/>
  <rect class="cls-13" x="136" y="26" width="26" height="26" rx="2" ry="2"/>
  <rect class="cls-13" x="136" y="965" width="26" height="26" rx="2" ry="2"/>
  <rect class="cls-13" x="136" y="437" width="26" height="150" rx="2" ry="2"/>
  <rect class="cls-14" x="142" y="0.5" width="14" height="1022"/>
  <rect class="cls-15" x="137" y="35" width="24" height="8"/>
  <rect class="cls-15" x="138" y="974" width="22" height="8"/>
  <path class="cls-15" d="M148,469h2a11,11,0,0,1,11,11v36a0,0,0,0,1,0,0H137a0,0,0,0,1,0,0V480A11,11,0,0,1,148,469Z"/>
  <path class="cls-15" d="M149,546h0a11,11,0,0,1,11,11v10a0,0,0,0,1,0,0H138a0,0,0,0,1,0,0V557A11,11,0,0,1,149,546Z" transform="translate(298 1113) rotate(180)"/>
</svg>
