<svg id="Calque_1" data-name="Calque 1" xmlns="http://www.w3.org/2000/svg" xmlns:xlink="http://www.w3.org/1999/xlink" viewBox="0 0 739 1023">
  <defs>
    <style>
      .cls-1, .cls-12 {
        fill: none;
      }

      .cls-2 {
        fill: #fdd835;
      }

      .cls-3 {
        fill: #333;
      }

      .cls-13, .cls-14, .cls-3, .cls-4, .cls-5, .cls-6 {
        stroke: #000;
      }

      .cls-12, .cls-13, .cls-14, .cls-3, .cls-4, .cls-5, .cls-6 {
        stroke-miterlimit: 10;
      }

      .cls-12, .cls-3, .cls-4, .cls-5, .cls-6 {
        stroke-width: 2px;
      }

      .cls-4 {
        fill: url(#Dégradé_sans_nom_14);
      }

      .cls-5 {
        fill: #ccc;
      }

      .cls-6 {
        fill: #fff;
      }

      .cls-7 {
        clip-path: url(#clip-path);
      }

      .cls-8 {
        fill: #b61d2a;
      }

      .cls-9 {
        fill: #fffefe;
      }

      .cls-10 {
        fill: #e9afb9;
      }

      .cls-11 {
        fill: #932626;
      }

      .cls-12 {
        stroke: #1a1a1a;
      }

      .cls-13, .cls-15 {
        fill: #999;
      }

      .cls-14 {
        fill: #757575;
      }
    </style>
    <radialGradient id="Dégradé_sans_nom_14" data-name="Dégradé sans nom 14" cx="333.97" cy="511.85" r="38.33" gradientTransform="translate(0 307.11) scale(1 0.4)" gradientUnits="userSpaceOnUse">
      <stop offset="0" stop-color="#4d4d4d"/>
      <stop offset="1"/>
    </radialGradient>
    <clipPath id="clip-path" transform="translate(0 0)">
      <rect class="cls-1" x="462.77" y="201.49" width="30.14" height="30.14"/>
    </clipPath>
  </defs>
  <title>direction</title>
  <rect class="cls-2" x="216.5" width="522.5" height="1023"/>
  <rect class="cls-2" width="250" height="1023"/>
  <circle class="cls-3" cx="303.24" cy="511.85" r="21.17"/>
  <rect class="cls-4" x="295.39" y="503.85" width="77.16" height="16.01" rx="8" ry="8"/>
  <rect class="cls-5" x="424.45" y="188.28" width="105.89" height="90.5" rx="3" ry="3"/>
  <rect class="cls-6" x="434.87" y="188.28" width="85.06" height="90.5"/>
  <g>
    <g class="cls-7">
      <path class="cls-8" d="M488.54,211.29a1.59,1.59,0,0,0-1.58-1.67,1.63,1.63,0,0,0-1.64,1.63,1.56,1.56,0,0,0,1.56,1.6,1.52,1.52,0,0,0,1.66-1.56Zm-5.17-2.82h-.13c0,.14-.08.27-.1.41q-1.21,7.8-2.41,15.6c-.06.41.05.57.48.64a14,14,0,0,1,2.16.46c.52.16.72,0,.92-.46.78-1.82,1.62-3.61,2.43-5.42l1.6-3.58-.13-.08L484,219.2l-.67-10.73Zm-16.09,7.41c.16.4.23.58.31.76,1.26,2.8,2.55,5.58,3.77,8.4.27.62.52.7,1.11.48a7.34,7.34,0,0,1,1.9-.4c.58,0,.67-.26.59-.78-.6-3.76-1.17-7.53-1.75-11.3-.24-1.54-.48-3.07-.72-4.61h-.16l-.66,10.75-4.38-3.32Zm10.57,1.48-2.17-4.49q-1-2-1.94-4c-.07-.15-.14-.39-.35-.33s-.15.32-.11.51c.11.49.22,1,.3,1.47q1,6.9,1.95,13.8c.06.44.16.6.64.58,1.12,0,2.25,0,3.37,0,.48,0,.58-.14.64-.58.62-4.45,1.29-8.9,1.9-13.36a5.21,5.21,0,0,0,.12-2.56l-4.35,8.94Zm0,14.27a15.07,15.07,0,1,1,15.12-15.11,15,15,0,0,1-15.12,15.11Z" transform="translate(0 0)"/>
    </g>
    <path class="cls-9" d="M477.84,217.36l4.35-8.94a5.21,5.21,0,0,1-.12,2.56c-.61,4.46-1.28,8.9-1.9,13.36-.06.44-.17.6-.64.58-1.12,0-2.25,0-3.37,0-.48,0-.58-.14-.64-.58q-.95-6.9-1.95-13.8c-.07-.49-.19-1-.3-1.47,0-.2-.17-.43.11-.51s.28.18.35.33q1,2,1.94,4l2.17,4.49Z" transform="translate(0 0)"/>
    <path class="cls-9" d="M467.27,215.88l4.38,3.32.66-10.75h.16c.24,1.53.48,3.07.72,4.61.58,3.77,1.15,7.54,1.75,11.3.08.52,0,.74-.59.78a7.34,7.34,0,0,0-1.9.4c-.59.21-.84.13-1.11-.48-1.22-2.82-2.51-5.6-3.77-8.4-.08-.18-.15-.36-.31-.76Z" transform="translate(0 0)"/>
    <path class="cls-10" d="M483.36,208.47,484,219.2l4.16-3.16.13.08-1.6,3.58c-.81,1.81-1.65,3.6-2.43,5.42-.21.48-.4.62-.92.46a14,14,0,0,0-2.16-.46c-.43-.06-.55-.23-.48-.64q1.21-7.8,2.41-15.6c0-.14.07-.27.1-.41Z" transform="translate(0 0)"/>
    <path class="cls-10" d="M488.54,211.29a1.52,1.52,0,0,1-1.66,1.56,1.56,1.56,0,0,1-1.56-1.6,1.63,1.63,0,0,1,1.64-1.63,1.59,1.59,0,0,1,1.58,1.67Z" transform="translate(0 0)"/>
  </g>
  <g>
    <path class="cls-11" d="M456,249.4a5.94,5.94,0,0,1-.41,2.32,4.38,4.38,0,0,1-1.18,1.64,4.89,4.89,0,0,1-1.84,1,8.34,8.34,0,0,1-2.37.32q-.62,0-1.41-.05a9.51,9.51,0,0,1-1.49-.21v-10a9,9,0,0,1,1.51-.21q.8,0,1.42,0a8.58,8.58,0,0,1,2.35.3,4.86,4.86,0,0,1,1.83.95,4.25,4.25,0,0,1,1.18,1.63A6,6,0,0,1,456,249.4Zm-6.84,3.6.43,0h.73a3.74,3.74,0,0,0,2.8-1,4.37,4.37,0,0,0,0-5.35,3.74,3.74,0,0,0-2.8-.93,10.81,10.81,0,0,0-1.18,0Z" transform="translate(0 0)"/>
    <path class="cls-11" d="M460,244.53a1,1,0,0,1-.33.8,1.11,1.11,0,0,1-.77.3,1.13,1.13,0,0,1-.78-.3,1,1,0,0,1-.33-.8,1,1,0,0,1,.33-.81,1.13,1.13,0,0,1,.78-.3,1.11,1.11,0,0,1,.77.3A1,1,0,0,1,460,244.53Zm-.19,10H458v-7.74h1.79Z" transform="translate(0 0)"/>
    <path class="cls-11" d="M466.47,248.41a5.78,5.78,0,0,0-.61-.16,4.52,4.52,0,0,0-.91-.08,3.59,3.59,0,0,0-.63.06,3.79,3.79,0,0,0-.47.1v6.2h-1.79v-7.37a9.78,9.78,0,0,1,1.29-.36,8.08,8.08,0,0,1,1.72-.17l.41,0,.47.06.46.09.36.1Z" transform="translate(0 0)"/>
    <path class="cls-11" d="M467.6,250.7a4.87,4.87,0,0,1,.3-1.79,3.76,3.76,0,0,1,.81-1.28,3.34,3.34,0,0,1,1.15-.77,3.58,3.58,0,0,1,1.33-.26,3.19,3.19,0,0,1,2.49,1,4.29,4.29,0,0,1,.9,3q0,.15,0,.33c0,.12,0,.23,0,.33h-5.11a2,2,0,0,0,.66,1.44,2.5,2.5,0,0,0,1.69.51,5.56,5.56,0,0,0,1.19-.12,4.93,4.93,0,0,0,.85-.25l.24,1.46a2.79,2.79,0,0,1-.41.16,5.81,5.81,0,0,1-.59.15q-.33.07-.72.11a6.8,6.8,0,0,1-.78,0,4.75,4.75,0,0,1-1.78-.3,3.31,3.31,0,0,1-1.24-.84,3.45,3.45,0,0,1-.73-1.27A5.18,5.18,0,0,1,467.6,250.7Zm5.19-.8a2.36,2.36,0,0,0-.1-.7,1.7,1.7,0,0,0-.3-.58,1.44,1.44,0,0,0-.49-.38,1.56,1.56,0,0,0-.69-.14,1.61,1.61,0,0,0-.73.16,1.65,1.65,0,0,0-.53.41,1.87,1.87,0,0,0-.33.58,3.13,3.13,0,0,0-.16.67Z" transform="translate(0 0)"/>
    <path class="cls-11" d="M476,250.67a4.76,4.76,0,0,1,.27-1.61,3.82,3.82,0,0,1,.76-1.29,3.5,3.5,0,0,1,1.21-.86,4,4,0,0,1,1.6-.31,5.42,5.42,0,0,1,2.07.4l-.38,1.47a4,4,0,0,0-.7-.22,3.78,3.78,0,0,0-.84-.09,2,2,0,0,0-1.6.66,2.83,2.83,0,0,0-.55,1.86,2.93,2.93,0,0,0,.52,1.83,2.07,2.07,0,0,0,1.75.67,4.61,4.61,0,0,0,.9-.09,4.26,4.26,0,0,0,.77-.22l.25,1.48a3.75,3.75,0,0,1-.9.27,6.39,6.39,0,0,1-1.24.12,4.49,4.49,0,0,1-1.72-.3,3.27,3.27,0,0,1-1.21-.84,3.49,3.49,0,0,1-.72-1.29A5.33,5.33,0,0,1,476,250.67Z" transform="translate(0 0)"/>
    <path class="cls-11" d="M483.38,244.75l1.79-.3v2.34h2.75v1.49h-2.75v3.15a2.29,2.29,0,0,0,.3,1.33,1.17,1.17,0,0,0,1,.4,3.27,3.27,0,0,0,.87-.1,5.84,5.84,0,0,0,.6-.19l.3,1.42a6.68,6.68,0,0,1-.81.27,4.42,4.42,0,0,1-1.18.14,3.75,3.75,0,0,1-1.38-.22,2,2,0,0,1-.88-.64,2.56,2.56,0,0,1-.46-1,6.34,6.34,0,0,1-.13-1.37Z" transform="translate(0 0)"/>
    <path class="cls-11" d="M491.65,244.53a1,1,0,0,1-.33.8,1.1,1.1,0,0,1-.77.3,1.12,1.12,0,0,1-.78-.3,1,1,0,0,1-.33-.8,1,1,0,0,1,.33-.81,1.12,1.12,0,0,1,.78-.3,1.1,1.1,0,0,1,.77.3A1,1,0,0,1,491.65,244.53Zm-.19,10h-1.79v-7.74h1.79Z" transform="translate(0 0)"/>
    <path class="cls-11" d="M500.74,250.66a5,5,0,0,1-.27,1.67,3.72,3.72,0,0,1-.75,1.29,3.4,3.4,0,0,1-1.18.83,3.8,3.8,0,0,1-1.52.3,3.74,3.74,0,0,1-1.51-.3,3.42,3.42,0,0,1-1.17-.83,3.81,3.81,0,0,1-.76-1.29,4.87,4.87,0,0,1-.27-1.67,4.81,4.81,0,0,1,.27-1.67,3.74,3.74,0,0,1,.77-1.28,3.4,3.4,0,0,1,1.18-.82,3.79,3.79,0,0,1,1.49-.29,3.85,3.85,0,0,1,1.5.29,3.31,3.31,0,0,1,1.18.82,3.8,3.8,0,0,1,.76,1.28A4.81,4.81,0,0,1,500.74,250.66Zm-1.83,0a3,3,0,0,0-.5-1.83,1.76,1.76,0,0,0-2.77,0,3,3,0,0,0-.5,1.83,3.08,3.08,0,0,0,.5,1.85,1.75,1.75,0,0,0,2.77,0A3.08,3.08,0,0,0,498.9,250.66Z" transform="translate(0 0)"/>
    <path class="cls-11" d="M502.58,247a12,12,0,0,1,1.35-.28,11.6,11.6,0,0,1,1.83-.13,4.22,4.22,0,0,1,1.58.26,2.47,2.47,0,0,1,1,.73,2.76,2.76,0,0,1,.53,1.13,6.29,6.29,0,0,1,.16,1.44v4.35h-1.79v-4.07a5.93,5.93,0,0,0-.08-1.06,1.89,1.89,0,0,0-.27-.71,1.07,1.07,0,0,0-.5-.4,2.13,2.13,0,0,0-.78-.13,5.94,5.94,0,0,0-.71,0l-.55.07v6.25h-1.79Z" transform="translate(0 0)"/>
  </g>
  <line class="cls-12" x1="206" x2="206" y2="1023"/>
  <rect class="cls-13" x="136" y="26" width="26" height="26" rx="2" ry="2"/>
  <rect class="cls-13" x="136" y="965" width="26" height="26" rx="2" ry="2"/>
  <rect class="cls-13" x="136" y="437" width="26" height="150" rx="2" ry="2"/>
  <rect class="cls-14" x="142" y="0.5" width="14" height="1022"/>
  <rect class="cls-15" x="137" y="35" width="24" height="8"/>
  <rect class="cls-15" x="138" y="974" width="22" height="8"/>
  <path class="cls-15" d="M148,469h2a11,11,0,0,1,11,11v36a0,0,0,0,1,0,0H137a0,0,0,0,1,0,0V480A11,11,0,0,1,148,469Z"/>
  <path class="cls-15" d="M149,546h0a11,11,0,0,1,11,11v10a0,0,0,0,1,0,0H138a0,0,0,0,1,0,0V557A11,11,0,0,1,149,546Z" transform="translate(298 1113) rotate(180)"/>
</svg>
