<svg id="Calque_1" data-name="Calque 1" xmlns="http://www.w3.org/2000/svg" xmlns:xlink="http://www.w3.org/1999/xlink" viewBox="0 0 522.5 1023">
  <defs>
    <style>
      .cls-1 {
        fill: #54595b;
      }

      .cls-2 {
        fill: #333;
      }

      .cls-2, .cls-3, .cls-4 {
        stroke: #000;
        stroke-width: 2px;
      }

      .cls-2, .cls-3, .cls-4, .cls-7 {
        stroke-miterlimit: 10;
      }

      .cls-3 {
        fill: url(#Dégradé_sans_nom_14);
      }

      .cls-4 {
        fill: #ccc;
      }

      .cls-5 {
        fill: #1c548c;
      }

      .cls-6 {
        fill: #396a9b;
      }

      .cls-7 {
        fill: none;
        stroke: #49728e;
      }

      .cls-8 {
        fill: #49728e;
      }
    </style>
    <radialGradient id="Dégradé_sans_nom_14" data-name="Dégradé sans nom 14" cx="117.97" cy="511.85" r="38.33" gradientTransform="translate(-0.5 307.11) scale(1 0.4)" gradientUnits="userSpaceOnUse">
      <stop offset="0" stop-color="#4d4d4d"/>
      <stop offset="1"/>
    </radialGradient>
  </defs>
  <title>local</title>
  <rect class="cls-1" width="522.5" height="1023"/>
  <circle class="cls-2" cx="86.74" cy="511.85" r="21.17"/>
  <rect class="cls-3" x="78.89" y="503.85" width="77.16" height="16.01" rx="8" ry="8"/>
  <rect class="cls-4" x="189.3" y="195" width="141.2" height="43.07" rx="0.58" ry="0.58"/>
  <g>
    <path class="cls-5" d="M207.45,202.64h1.9v8.28h4.27v1.8h-6.17Z" transform="translate(-0.5 0)"/>
    <path class="cls-5" d="M218,205.59a3.83,3.83,0,0,1,1.47.27,3.41,3.41,0,0,1,1.92,1.92,4.12,4.12,0,0,1,0,3,3.41,3.41,0,0,1-1.92,1.92,4.08,4.08,0,0,1-2.94,0,3.41,3.41,0,0,1-1.92-1.92,4.12,4.12,0,0,1,0-3,3.41,3.41,0,0,1,1.92-1.92A3.83,3.83,0,0,1,218,205.59Zm0,5.65a1.81,1.81,0,0,0,.68-.13,1.74,1.74,0,0,0,.58-.39,1.84,1.84,0,0,0,.4-.62,2.41,2.41,0,0,0,0-1.66,1.84,1.84,0,0,0-.4-.62,1.74,1.74,0,0,0-.58-.39,1.82,1.82,0,0,0-.68-.13,1.79,1.79,0,0,0-.69.13,1.75,1.75,0,0,0-.58.39,1.83,1.83,0,0,0-.4.62,2.41,2.41,0,0,0,0,1.66,1.83,1.83,0,0,0,.4.62,1.75,1.75,0,0,0,.58.39A1.79,1.79,0,0,0,218,211.24Z" transform="translate(-0.5 0)"/>
    <path class="cls-5" d="M229.42,211a3.86,3.86,0,0,1-1.26,1.43,3.49,3.49,0,0,1-2,.56,3.84,3.84,0,0,1-1.47-.27,3.44,3.44,0,0,1-1.16-.77,3.57,3.57,0,0,1-.76-1.16,3.84,3.84,0,0,1-.27-1.47,3.89,3.89,0,0,1,.27-1.48,3.41,3.41,0,0,1,1.92-1.92,3.83,3.83,0,0,1,1.47-.27,3.53,3.53,0,0,1,2,.55,3.26,3.26,0,0,1,1.2,1.42l-1.69.7a1.82,1.82,0,0,0-.61-.73,1.67,1.67,0,0,0-.94-.25,1.71,1.71,0,0,0-.69.14,1.77,1.77,0,0,0-.57.39,1.81,1.81,0,0,0-.39.62,2.44,2.44,0,0,0,0,1.63,1.81,1.81,0,0,0,.39.62,1.78,1.78,0,0,0,.57.39,1.71,1.71,0,0,0,.69.14,1.76,1.76,0,0,0,1-.26,1.82,1.82,0,0,0,.64-.75Z" transform="translate(-0.5 0)"/>
    <path class="cls-5" d="M234.73,212h-.11a3.13,3.13,0,0,1-.78.68,2.22,2.22,0,0,1-1.18.28,2.86,2.86,0,0,1-1-.18,2.61,2.61,0,0,1-.82-.49,2.17,2.17,0,0,1-.55-.75,2.29,2.29,0,0,1-.2-1,2.16,2.16,0,0,1,.21-1,2.2,2.2,0,0,1,.59-.74,2.68,2.68,0,0,1,.9-.47,3.71,3.71,0,0,1,1.12-.16,4.87,4.87,0,0,1,1.11.11,5.45,5.45,0,0,1,.72.22v-.21a1.13,1.13,0,0,0-.44-.91,1.65,1.65,0,0,0-1.08-.36,2,2,0,0,0-1.62.8l-1.34-.92a3.63,3.63,0,0,1,3-1.38,3.57,3.57,0,0,1,2.45.75,2.84,2.84,0,0,1,.85,2.23v4.14h-1.82Zm0-2.07a3.85,3.85,0,0,0-.67-.25,2.94,2.94,0,0,0-.75-.09,1.6,1.6,0,0,0-1,.29.88.88,0,0,0-.36.71.8.8,0,0,0,.35.68,1.31,1.31,0,0,0,.8.25,1.7,1.7,0,0,0,1.2-.49,1.57,1.57,0,0,0,.46-1.11Z" transform="translate(-0.5 0)"/>
    <path class="cls-5" d="M238,212.72V202.64h1.85v10.09Z" transform="translate(-0.5 0)"/>
    <path class="cls-5" d="M207.45,217.87h1.87l3.08,5.34h.11l3.09-5.34h1.89V228h-1.89v-5l.11-1.69h-.11L213,225.81H211.9l-2.58-4.52h-.11l.11,1.69v5h-1.87Z" transform="translate(-0.5 0)"/>
    <path class="cls-5" d="M225.84,226.29a3.86,3.86,0,0,1-1.29,1.37,3.59,3.59,0,0,1-2,.52,3.8,3.8,0,0,1-1.46-.27,3.48,3.48,0,0,1-1.93-1.93,3.84,3.84,0,0,1-.27-1.47,3.77,3.77,0,0,1,.27-1.42,3.57,3.57,0,0,1,1.88-2,3.47,3.47,0,0,1,1.44-.3,3.75,3.75,0,0,1,1.48.27,3,3,0,0,1,1.08.76,3.27,3.27,0,0,1,.66,1.15,4.43,4.43,0,0,1,.23,1.44v.17a.91.91,0,0,0,0,.15.8.8,0,0,0,0,.16h-5.2a1.93,1.93,0,0,0,.23.73,1.74,1.74,0,0,0,.44.51,1.69,1.69,0,0,0,.57.3,2.21,2.21,0,0,0,.63.09,1.8,1.8,0,0,0,1-.29,2.1,2.1,0,0,0,.65-.73Zm-1.68-2.68a1.2,1.2,0,0,0-.12-.41,1.45,1.45,0,0,0-.31-.42,1.63,1.63,0,0,0-.51-.32,1.88,1.88,0,0,0-.73-.13,1.69,1.69,0,0,0-1,.34,1.78,1.78,0,0,0-.63.94Zm-2.58-3.94.59-1.92h2.16l-1.27,1.92Z" transform="translate(-0.5 0)"/>
    <path class="cls-5" d="M228.87,222H229a2.35,2.35,0,0,1,.87-.82,2.56,2.56,0,0,1,1.25-.3,2.87,2.87,0,0,1,1.14.21,2.09,2.09,0,0,1,.81.6,2.64,2.64,0,0,1,.48.93,4.2,4.2,0,0,1,.16,1.2V228h-1.85v-4a1.59,1.59,0,0,0-.33-1.11,1.25,1.25,0,0,0-1-.36,1.35,1.35,0,0,0-.67.16,1.56,1.56,0,0,0-.49.44,2,2,0,0,0-.31.65,2.9,2.9,0,0,0-.11.8V228h-1.85v-6.9h1.73Z" transform="translate(-0.5 0)"/>
    <path class="cls-5" d="M239.4,227.22h-.11a3.13,3.13,0,0,1-.78.68,2.22,2.22,0,0,1-1.18.28,2.86,2.86,0,0,1-1-.18,2.61,2.61,0,0,1-.82-.49,2.17,2.17,0,0,1-.55-.75,2.29,2.29,0,0,1-.2-1,2.16,2.16,0,0,1,.21-1,2.2,2.2,0,0,1,.59-.74,2.68,2.68,0,0,1,.9-.47,3.71,3.71,0,0,1,1.12-.16,4.87,4.87,0,0,1,1.11.11,5.45,5.45,0,0,1,.72.22v-.21a1.13,1.13,0,0,0-.44-.91,1.65,1.65,0,0,0-1.08-.36,2,2,0,0,0-1.62.8l-1.34-.92a3.63,3.63,0,0,1,3-1.38,3.57,3.57,0,0,1,2.45.75,2.84,2.84,0,0,1,.85,2.23V228H239.4Zm0-2.07a3.85,3.85,0,0,0-.67-.25,2.94,2.94,0,0,0-.75-.09,1.6,1.6,0,0,0-1,.29.88.88,0,0,0-.36.71.8.8,0,0,0,.35.68,1.31,1.31,0,0,0,.8.25,1.7,1.7,0,0,0,1.2-.49,1.57,1.57,0,0,0,.46-1.11Z" transform="translate(-0.5 0)"/>
    <path class="cls-5" d="M245.8,231.22a4.11,4.11,0,0,1-1.3-.19,3.7,3.7,0,0,1-1-.49,3.31,3.31,0,0,1-.7-.67,2.61,2.61,0,0,1-.41-.73l1.76-.7a1.68,1.68,0,0,0,.65.85,1.9,1.9,0,0,0,2.38-.26,2.26,2.26,0,0,0,.51-1.56V227h-.11a2.26,2.26,0,0,1-.85.71,2.79,2.79,0,0,1-1.25.26,3,3,0,0,1-1.2-.25,3.16,3.16,0,0,1-1-.72,3.79,3.79,0,0,1,0-5.19,3.16,3.16,0,0,1,1-.72,3,3,0,0,1,1.2-.25,2.79,2.79,0,0,1,1.25.26,2.26,2.26,0,0,1,.85.71h.11v-.75h1.76v6.41a4.36,4.36,0,0,1-.27,1.57,3.41,3.41,0,0,1-.75,1.18,3.25,3.25,0,0,1-1.15.75A4.06,4.06,0,0,1,245.8,231.22Zm.07-4.93a1.89,1.89,0,0,0,.67-.12,1.7,1.7,0,0,0,.58-.37,1.82,1.82,0,0,0,.41-.59,2,2,0,0,0,.15-.81,2,2,0,0,0-.15-.82,1.81,1.81,0,0,0-.41-.6,1.71,1.71,0,0,0-.58-.37,1.89,1.89,0,0,0-.67-.12,1.83,1.83,0,0,0-.66.13,1.67,1.67,0,0,0-.58.37,1.9,1.9,0,0,0-.41.6,2.19,2.19,0,0,0,0,1.62,1.81,1.81,0,0,0,.41.59,1.72,1.72,0,0,0,.58.37A1.83,1.83,0,0,0,245.87,226.29Z" transform="translate(-0.5 0)"/>
    <path class="cls-5" d="M257.49,226.29a3.86,3.86,0,0,1-1.29,1.37,3.59,3.59,0,0,1-2,.52,3.8,3.8,0,0,1-1.46-.27,3.48,3.48,0,0,1-1.93-1.93,3.84,3.84,0,0,1-.27-1.47,3.77,3.77,0,0,1,.27-1.42,3.57,3.57,0,0,1,1.88-2,3.47,3.47,0,0,1,1.44-.3,3.75,3.75,0,0,1,1.48.27,3,3,0,0,1,1.08.76,3.27,3.27,0,0,1,.66,1.15,4.43,4.43,0,0,1,.23,1.44v.17a.91.91,0,0,0,0,.15.8.8,0,0,0,0,.16h-5.2a1.93,1.93,0,0,0,.23.73,1.74,1.74,0,0,0,.44.51,1.69,1.69,0,0,0,.57.3,2.21,2.21,0,0,0,.63.09,1.8,1.8,0,0,0,1-.29,2.1,2.1,0,0,0,.65-.73Zm-1.68-2.68a1.2,1.2,0,0,0-.12-.41,1.45,1.45,0,0,0-.31-.42,1.63,1.63,0,0,0-.51-.32,1.88,1.88,0,0,0-.73-.13,1.69,1.69,0,0,0-1,.34,1.78,1.78,0,0,0-.63.94Z" transform="translate(-0.5 0)"/>
  </g>
  <g>
    <path class="cls-5" d="M282,199s4.71,25.14,4.71,31.43" transform="translate(-0.5 0)"/>
    <g>
      <path class="cls-6" d="M286.43,230.43s.14,0,.12,0l-.17,0Z" transform="translate(-0.5 0)"/>
      <path class="cls-6" d="M286.72,230.12a.5.5,0,0,0-.38-.07c.16.05.1.06.29.12,0,0-.05.08-.11.07s0,.07.07.1.13-.14,0-.21A.2.2,0,0,1,286.72,230.12Z" transform="translate(-0.5 0)"/>
      <path class="cls-6" d="M286.61,225.6l0,0Z" transform="translate(-0.5 0)"/>
      <path class="cls-6" d="M286.34,222.81a0,0,0,0,0,0,0S286.36,222.8,286.34,222.81Z" transform="translate(-0.5 0)"/>
      <path class="cls-6" d="M286.46,222.31v0S286.47,222.32,286.46,222.31Z" transform="translate(-0.5 0)"/>
      <path class="cls-6" d="M286.61,225.6l0-.08C286.59,225.52,286.61,225.56,286.61,225.6Z" transform="translate(-0.5 0)"/>
      <path class="cls-6" d="M286.3,229.52l0,0,0,0Z" transform="translate(-0.5 0)"/>
      <path class="cls-6" d="M286.88,226.81v0h.07Z" transform="translate(-0.5 0)"/>
      <path class="cls-6" d="M287,227.76s-.14,0-.2,0,.09,0,.1,0Z" transform="translate(-0.5 0)"/>
      <path class="cls-6" d="M286.86,229.28l0,0Z" transform="translate(-0.5 0)"/>
      <path class="cls-6" d="M286.83,226.13h0Z" transform="translate(-0.5 0)"/>
      <path class="cls-6" d="M281.6,200.2h0Z" transform="translate(-0.5 0)"/>
      <polygon class="cls-6" points="281.58 198.99 281.59 199.01 281.67 199 281.58 198.99"/>
      <path class="cls-6" d="M286.51,221.42h0S286.52,221.43,286.51,221.42Z" transform="translate(-0.5 0)"/>
      <path class="cls-6" d="M285.18,213.5c-.11.11-.18-.12-.3,0C284.94,213.52,285.12,213.63,285.18,213.5Z" transform="translate(-0.5 0)"/>
      <path class="cls-6" d="M286.32,229.49a.16.16,0,0,1,0,0A0,0,0,0,0,286.32,229.49Z" transform="translate(-0.5 0)"/>
      <polygon class="cls-6" points="284.38 213.54 284.38 213.54 284.37 213.56 284.38 213.54"/>
      <path class="cls-6" d="M286.14,219.44l-.06,0Z" transform="translate(-0.5 0)"/>
      <path class="cls-6" d="M286.16,221v0A.07.07,0,0,0,286.16,221Z" transform="translate(-0.5 0)"/>
      <path class="cls-6" d="M285.82,218.7s0,0,0-.06h0S285.84,218.67,285.82,218.7Z" transform="translate(-0.5 0)"/>
      <polygon class="cls-6" points="285.2 217.9 285.18 217.91 285.19 217.94 285.2 217.9"/>
      <path class="cls-6" d="M282.11,202.6l.12-.06C282.13,202.57,282.07,202.46,282.11,202.6Z" transform="translate(-0.5 0)"/>
      <path class="cls-6" d="M286.38,229.51l-.06,0v0Z" transform="translate(-0.5 0)"/>
      <path class="cls-6" d="M284.72,218.83v-.13A.38.38,0,0,0,284.72,218.83Z" transform="translate(-0.5 0)"/>
      <path class="cls-6" d="M283.14,208.32l0,0S283.12,208.31,283.14,208.32Z" transform="translate(-0.5 0)"/>
      <path class="cls-6" d="M284.65,218.33a.24.24,0,0,0,.09-.09h0Z" transform="translate(-0.5 0)"/>
      <path class="cls-6" d="M282.23,202.54h0Z" transform="translate(-0.5 0)"/>
      <path class="cls-6" d="M281.75,201.77c0,.12.19,0,.3,0s-.12.09-.21.16.24.12.25.19,0,0-.08,0c.16.07.06.28.26.36l0,0a1.06,1.06,0,0,1,.25-.06c0,.05.13.08,0,.12s-.05,0-.09,0l.06,0c-.16.08-.07-.07-.2,0,.08.1.24.2.21.3s-.09-.19-.22,0l0-.14c-.25.15,0-.08-.26.06,0,.18.12.18.1.36.1,0,.14,0,.23,0,.21.21-.39.27-.13.41s.33,0,.25.15h-.2c0,.17.29,0,.19.24-.08,0-.09-.12-.1-.09s.12.06.14.15l-.16,0c.06.17.21.35.28.54-.05,0-.11,0-.15,0a1.16,1.16,0,0,1,0,.79l.16.07s-.06.05-.09,0,.09,0,.16,0-.07.08-.12.06c.15.14.35.42.22.62l0,0c0,.15.32.1.21.25l0,0c0,.3.18.61,0,.87.22,0,0,.31.25.27-.11.19-.18.15-.23.41,0,.07.2.06.24.14l-.15,0,.18.08-.17.09.05.07a.13.13,0,0,1,.1-.08c.09.1-.06.3-.14.31l.18.25c-.06,0-.09,0-.14-.07.18.12-.16.05,0,.16s.09,0,.12,0a.3.3,0,0,0,0,.34h-.11a6.23,6.23,0,0,0,.16.64c0-.09.22-.1.25,0l-.16.05c.11,0,0-.08.18,0s-.17.09-.23,0l.07.09s-.08,0-.14,0c.11,0-.13.2.05.23h0c0,.23.11.32.15.5.14,0,.12.06.24.09a1.22,1.22,0,0,0-.07.47c.09.1.12,0,.21.05-.12,0-.09.19-.19.12a1.33,1.33,0,0,0,.21.47s.06-.07.11-.06,0,.11-.1.11h0c.24.24-.26.7,0,.88h0l.17.21c0,.11-.11,0-.17,0,.25.21,0,.39.21.57-.35.22.12.55-.09.8l.09,0c.1,0,0,.07-.05.12s.07-.07.12,0a3.85,3.85,0,0,1,0,1.47c0,.18.47,0,.3.28l-.17,0c.25.32.11.72.33,1,0,0-.09,0-.09,0s0,.27.13.26-.09,0-.13.07.18.16.07.22,0,0-.05,0,0,.22.15.16c0,.14.1.24,0,.35.16,0,0,.23.18.22-.22,0-.15.25,0,.32-.07,0-.06.08-.16.06s.07.17.18.14c-.24.21.27.31-.06.46a4.09,4.09,0,0,1,.37.74c-.22,0-.06-.27-.3-.23.13.22.34.33.32.57,0,.07-.1,0-.14,0,.13.22,0,.46.2.65a.1.1,0,0,1-.07,0s0,.1.08.08l0,0c.14-.09.33.12.41.12-.3,0,0,.22-.43.16a.15.15,0,0,0,.14,0s-.05.06-.14,0c.08.14.18.07.19.21s-.07,0-.13,0c.11.05.21.11.19.23s-.07,0-.07,0c0,.19.3.3.24.52-.22,0-.06.08-.24.12l.07.11.08-.06c0,.1.16.17.11.27l-.09-.06.06.18.06-.12c.11.09.23,0,.2.1,0,0,0,.1-.09.17h0c.07,0,.13.09.1.17s-.21,0-.24,0c.16,0,.07.23.25.27a.32.32,0,0,0-.16,0l.13,0c0,.05-.05.06-.13.06s.23-.08.15.1c0,0,0,0-.05,0,0,.17.12.31.08.48s-.06-.13-.21-.06c.06.22.28.43.27.65l0,0c.27,0-.11.18,0,.27,0,0-.15,0-.12,0s.1.29.21.51l-.07,0c-.05.09,0,.23,0,.33s.07.08.16,0c-.35.33.27.53,0,.82,0,0-.07-.07-.06,0l.09.21c.11,0,.07,0,.15-.09a.18.18,0,0,1,.14.13c-.09-.09-.18,0-.24.07h.11c-.19.14.23,0,.11.17h-.06c0,.06.12.1.11.17s-.07-.06-.18,0,.27.15.14.24,0-.09-.09-.12-.11.11-.13.18h0l-.06.16,0,0c.36.08.08.22.32.35-.23-.13-.13,0-.28,0s-.08.1-.12.09c.13.06-.09.13.1.21,0,0,0,.08-.12.07,0,.09.08,0,.14,0s-.17.35.07.53.27.19.36.35c-.08.06-.18,0-.18,0a.17.17,0,0,0,0,.24s-.08,0-.13,0,.18,0,.11.13a.91.91,0,0,1-.2-.06c0,.08.14.15.19.23s-.13,0-.19-.07.09.23.22.26l0-.06s-.11,0-.14,0,0-.11.09-.12l0,.06c.28-.07-.05-.23,0-.35l.21,0-.18-.11c.05,0,.17-.05.2,0s-.08-.07,0-.15h0l-.07-.08s.15,0,.12,0c.11-.16-.17-.23,0-.3h0c-.09-.2-.15,0-.35-.15l.37-.13h-.15a.06.06,0,0,1,.07-.06c-.11-.07-.07,0-.17,0,.13-.11-.09-.28.15-.32-.12,0-.08.1-.17,0,.26-.05-.06-.12.06-.23s.07.11.19,0c-.23,0,0-.19,0-.26s-.09-.16-.16-.29.08-.26.13-.39h0c-.19,0-.16-.14-.21-.22a.25.25,0,0,1,.21,0v-.09a.16.16,0,0,1-.12-.09h.14c0-.11-.19-.22-.11-.37-.13,0-.34.16-.44,0,.07,0,.19,0,.22,0s-.06,0,0-.07l.12,0c0-.07-.1,0-.1-.08s.07,0,.14,0,0,.05,0,.07a.25.25,0,0,1,.13-.18c-.06,0-.13,0-.15,0s.11-.05.16-.13,0-.1-.16-.09.06,0,.1-.07,0-.28-.2-.19v0h0c-.17-.18,0-.42,0-.6h0c-.07-.11-.07-.25-.18-.32s.08-.09.14-.08-.1-.09,0-.22c.1.08.07,0,.07.08,0-.12.1-.16,0-.26a.1.1,0,0,0,.1-.16l-.08.09a.34.34,0,0,1,0-.17h.17c.17-.26-.4-.38-.08-.6-.12,0-.06.14-.21.1,0-.11.23-.25.23-.29s-.26-.11-.22-.27c-.06,0-.21.07-.28,0s.23-.17.29-.1a0,0,0,0,1,0,0s.06.07.12,0h-.06c.05-.06,0-.21.13-.19-.07-.07-.1,0-.12,0,.07-.15,0-.22,0-.37,0,0-.1.06-.1,0,0-.22-.12-.08-.17-.21s.22,0,.12-.13.15,0,.21,0c-.13-.11,0-.25.05-.33l.06.06a.17.17,0,0,1,0-.1l-.11.06s0-.08.06-.08-.19.06-.31,0c.05-.06-.09-.15.07-.19,0,.18.15,0,.2.1a.1.1,0,0,1,0-.1,0,0,0,0,1,0,0c.12-.18-.19,0-.21-.22.09,0,.16-.06.14-.09s-.14.05-.22,0-.07-.11-.07-.17l0,.07c-.09,0-.09-.06-.13-.13s.06.06.08,0c-.17-.06.13-.21,0-.31.05-.06.16,0,.2-.08-.13-.11.1-.16,0-.28-.11.06-.08.06-.21,0l.12.21-.19-.12c0,.07.09.13.08.17s-.08-.05-.17,0c.16-.12-.13-.17,0-.29l.29,0c.11-.18-.19-.26-.15-.48l0,.07c-.12,0,0-.13-.09-.19.1,0,.13-.06.18-.09s0-.15-.21-.14l.11-.11c0-.18-.31-.15-.3-.32.11,0,.17-.05.26,0,0-.05,0-.11-.06-.1s-.15-.13-.07-.19-.15,0-.15-.07h0s-.08-.08-.18,0c.28-.21-.09-.46.15-.65a2.14,2.14,0,0,1-.13-.36s0,0,0,0c.07-.16-.29,0-.22-.23s.1.08.15,0c.32-.07-.08-.2.09-.34l0,0c.1-.1-.15-.19-.15-.34h0a.7.7,0,0,1-.33-.37c.13,0,.08.05.2,0,0-.06-.2.05-.26-.07s.11-.15.24-.18l0,.11c.17-.09,0-.15,0-.21h.08c-.05-.17-.25-.14-.26-.33l-.06,0c-.21-.07.09-.1-.06-.18l.19-.06a1.62,1.62,0,0,1-.28-.32,1.12,1.12,0,0,1,.35.25c0-.07-.05-.23-.15-.25s.08.05.05.08a.36.36,0,0,1-.28-.29c.38,0,0-.36.32-.51-.18-.21,0-.48-.09-.75-.28.15,0-.08-.32,0,0-.06,0-.09,0-.1l.15-.22c.08-.06.08.05.14,0s.12-.08.18-.19c-.1,0-.16,0-.13-.11l-.12.14c-.19-.17.23-.21,0-.38l.11,0c-.07-.09-.06-.38-.32-.44,0,0,.11-.06.14,0,0-.25-.35-.5-.23-.71h.08s-.15-.06-.09-.12.08,0,.08,0-.15-.1-.12-.17l.09,0c.06-.25-.26-.33-.35-.52a.36.36,0,0,0,.28-.33h0c0-.28-.26-.44-.39-.68.21-.2,0-.55.09-.83,0,0-.17,0-.2,0s-.18-.14,0-.16v0c.19-.08.11-.19.1-.29l-.26,0c.34-.32-.25-.63.06-.83-.08,0-.09-.12-.16-.17l.14,0a1,1,0,0,0-.06-.46l.11,0c0-.12-.43-.08-.46-.18l.2-.07c0-.2.11-.44-.12-.61,0,0,.09,0,.11,0s.08-.4-.2-.31c.19,0,0-.21-.12-.31h.14c-.19-.06-.24-.06-.31-.18s.11,0,.08,0c.05-.12-.14-.06-.09-.19l.1,0c0-.11-.05-.09-.17-.13s0-.21.12-.24c-.08,0-.19,0-.16-.11a.11.11,0,0,1,.09,0c.06-.19-.21-.23-.09-.38l.08,0a.81.81,0,0,1,0,.25c.13,0,.13-.14.32-.08-.11-.07-.35-.19-.31-.31l0,0h0s0,0,0-.07a.2.2,0,0,0,0-.1c.1,0,0-.14,0-.2s-.13,0-.23,0,0,0,0,0l0,0h0l0,.14c-.08,0-.15-.07-.08-.14l-.24,0c.18-.11.26-.28.37-.32-.11-.16-.12-.4-.4-.46,0,0,.06-.07.1-.1s0,.06.07.07-.08-.29-.26-.28c.06-.14.18,0,.12-.12h.06c.23-.39-.56-.46-.26-.9,0,0,0,0-.06.06.09-.45-.31-.84-.13-1.3,0-.13-.09-.12-.19-.18l.14-.05-.19-.09c-.16-.15.31-.37,0-.55l-.09,0c0-.08-.11-.24,0-.25s-.11,0-.06,0l.08,0-.17-.17c0-.16.31,0,.29-.26s-.27-.19-.32-.15a.13.13,0,0,1-.11.11l-.05-.07c-.23,0-.48,0-.6.23l.16.1-.1.06,0-.11c-.09.08,0,.1.08.13a.21.21,0,0,0-.11.08l.24.09c-.09,0-.19,0-.22.07s.19-.09.28,0c-.09.08-.18.08-.08.13a.13.13,0,0,1-.13,0c.08.05.06.16.19.17-.12.09.07.21-.14.24.06,0,.19.08.21.14-.28-.06,0,.22-.26.25.25,0,.16.27.31.39,0,0-.06,0-.05,0s-.07.12-.11.18c.19,0,.26.09.39.14-.17.13-.24,0-.41,0,.16,0,.19.14.31.08-.1.1,0,.07-.2.14.24,0,.05.06.21.1-.1.13-.22.07-.13.17C281.85,201.86,281.75,201.77,281.75,201.77Zm.92,2.74h0l0-.06Zm0,.24a.53.53,0,0,0,0-.1s.1,0,.1,0S282.75,204.71,282.71,204.75Zm.87-.67s0,.05,0,.06l0-.06h.05Z" transform="translate(-0.5 0)"/>
      <path class="cls-6" d="M283.39,204h0l0,0h0Z" transform="translate(-0.5 0)"/>
      <path class="cls-6" d="M286.59,225.64h0Z" transform="translate(-0.5 0)"/>
      <polygon class="cls-6" points="282.52 208.07 282.56 208.06 282.52 208.04 282.52 208.07"/>
      <path class="cls-6" d="M286.25,227l0,0Z" transform="translate(-0.5 0)"/>
      <path class="cls-6" d="M286.28,227.58l0,.08A.3.3,0,0,0,286.28,227.58Z" transform="translate(-0.5 0)"/>
      <path class="cls-6" d="M286.25,228h0Z" transform="translate(-0.5 0)"/>
      <path class="cls-6" d="M285.23,221.12v0S285.2,221.09,285.23,221.12Z" transform="translate(-0.5 0)"/>
      <path class="cls-6" d="M285.85,223.13l-.07-.06S285.77,223.14,285.85,223.13Z" transform="translate(-0.5 0)"/>
      <path class="cls-6" d="M284.72,218.85h0Z" transform="translate(-0.5 0)"/>
      <path class="cls-6" d="M285.76,223a.07.07,0,0,0,0,.1S285.79,223,285.76,223Z" transform="translate(-0.5 0)"/>
      <path class="cls-6" d="M286.3,229.9v0h0Z" transform="translate(-0.5 0)"/>
      <path class="cls-6" d="M286.32,229.92l0,0S286.34,229.93,286.32,229.92Z" transform="translate(-0.5 0)"/>
      <path class="cls-6" d="M286.38,230l0,0S286.33,230,286.38,230Z" transform="translate(-0.5 0)"/>
      <path class="cls-6" d="M286.35,229.33h0Z" transform="translate(-0.5 0)"/>
      <path class="cls-6" d="M286.33,229.15s-.1.11-.07.17h0C286.22,229.3,286.41,229.19,286.33,229.15Z" transform="translate(-0.5 0)"/>
      <path class="cls-6" d="M286.9,228.37l0,.15c.05,0,.12-.07.14,0C287.15,228.32,286.89,228.57,286.9,228.37Z" transform="translate(-0.5 0)"/>
      <path class="cls-6" d="M286.93,227.91c0,.08.08,0,.11,0S287,227.84,286.93,227.91Z" transform="translate(-0.5 0)"/>
      <path class="cls-6" d="M286.57,224.59h.13C286.67,224.52,286.65,224.59,286.57,224.59Z" transform="translate(-0.5 0)"/>
      <polygon class="cls-6" points="285.33 224.04 285.26 224.11 285.38 224.13 285.33 224.04"/>
      <polygon class="cls-6" points="286.19 223.55 286.21 223.58 286.15 223.48 286.19 223.55"/>
      <path class="cls-6" d="M285.85,218l-.15,0S285.9,218.08,285.85,218Z" transform="translate(-0.5 0)"/>
      <path class="cls-6" d="M285.31,215.66c.07,0,.11-.11,0-.14S285.29,215.64,285.31,215.66Z" transform="translate(-0.5 0)"/>
      <polygon class="cls-6" points="283.88 208.48 283.94 208.52 283.88 208.44 283.88 208.48"/>
    </g>
  </g>
  <g>
    <line class="cls-5" x1="279.98" y1="230.43" x2="292.55" y2="228.86"/>
    <g>
      <path class="cls-6" d="M293.09,229.19s0-.14,0-.12v.17Z" transform="translate(-0.5 0)"/>
      <path class="cls-6" d="M292.93,228.9a1.11,1.11,0,0,0,0,.37c0-.16,0-.1,0-.29,0,0,0,0,0,.11s0,0,0-.07-.07-.13-.09,0A.48.48,0,0,1,292.93,228.9Z" transform="translate(-0.5 0)"/>
      <path class="cls-6" d="M291.11,228.87v0Z" transform="translate(-0.5 0)"/>
      <path class="cls-6" d="M290,228.91s0,0,0,0A0,0,0,0,0,290,228.91Z" transform="translate(-0.5 0)"/>
      <path class="cls-6" d="M289.79,228.76h0S289.79,228.74,289.79,228.76Z" transform="translate(-0.5 0)"/>
      <path class="cls-6" d="M291.11,228.87l0,0C291.08,228.87,291.1,228.86,291.11,228.87Z" transform="translate(-0.5 0)"/>
      <path class="cls-6" d="M292.73,229.33a.13.13,0,0,0,0,0v0Z" transform="translate(-0.5 0)"/>
      <path class="cls-6" d="M291.58,228.67h0s0,0,0-.07Z" transform="translate(-0.5 0)"/>
      <path class="cls-6" d="M292,228.6a1.17,1.17,0,0,0,0,.2.25.25,0,0,1,0-.1Z" transform="translate(-0.5 0)"/>
      <path class="cls-6" d="M292.58,228.77v0Z" transform="translate(-0.5 0)"/>
      <path class="cls-6" d="M291.31,228.67v0Z" transform="translate(-0.5 0)"/>
      <path class="cls-6" d="M281,231v0S281,231,281,231Z" transform="translate(-0.5 0)"/>
      <path class="cls-6" d="M280.47,230.39h0v0Z" transform="translate(-0.5 0)"/>
      <path class="cls-6" d="M289.42,228.62h0S289.42,228.61,289.42,228.62Z" transform="translate(-0.5 0)"/>
      <path class="cls-6" d="M286.26,229.12c.05.12,0,.17,0,.3C286.28,229.36,286.32,229.19,286.26,229.12Z" transform="translate(-0.5 0)"/>
      <path class="cls-6" d="M292.72,229.31h0Z" transform="translate(-0.5 0)"/>
      <path class="cls-6" d="M286.3,229.42h0Z" transform="translate(-0.5 0)"/>
      <path class="cls-6" d="M288.63,228.8l0,.06Z" transform="translate(-0.5 0)"/>
      <path class="cls-6" d="M289.25,228.93l0,0Z" transform="translate(-0.5 0)"/>
      <path class="cls-6" d="M288.35,229s0,0,0,0v0S288.34,229,288.35,229Z" transform="translate(-0.5 0)"/>
      <path class="cls-6" d="M288,229.08v0h0Z" transform="translate(-0.5 0)"/>
      <path class="cls-6" d="M282,230.84s0-.08,0-.12S281.9,230.86,282,230.84Z" transform="translate(-0.5 0)"/>
      <path class="cls-6" d="M292.72,229.25a.15.15,0,0,1,0,.06h0A.27.27,0,0,0,292.72,229.25Z" transform="translate(-0.5 0)"/>
      <path class="cls-6" d="M288.48,230.14h0Z" transform="translate(-0.5 0)"/>
      <path class="cls-6" d="M284.25,230.53v0S284.25,230.55,284.25,230.53Z" transform="translate(-0.5 0)"/>
      <path class="cls-6" d="M288.27,230.17a.34.34,0,0,0,0-.09.28.28,0,0,0,0,0Z" transform="translate(-0.5 0)"/>
      <path class="cls-6" d="M281.93,230.72h0Z" transform="translate(-0.5 0)"/>
      <path class="cls-6" d="M281.63,231.09s0-.18,0-.29,0,.13.08.22,0-.22.06-.22a.26.26,0,0,1,0,.08c0-.15.11,0,.13-.21v0c0-.09,0-.18,0-.25s0-.12,0,0,0,0,0,.08l0-.05c0,.17,0,.06,0,.19,0-.06.07-.21.11-.17s-.07.07,0,.21l-.06-.06c.07.26,0,0,0,.27.08,0,.07-.1.14-.06s0-.14,0-.23.13.41.17.18,0-.33.05-.22v.19c.07,0,0-.28.09-.16s0,.07,0,.09,0-.11.05-.12l0,.17c.07,0,.13-.17.21-.21a.35.35,0,0,0,0,.15c.09-.1.22,0,.32.08l0-.15a.15.15,0,0,1,0,.09c0,.05,0-.09,0-.15s0,.08,0,.13c.05-.13.16-.29.24-.14v0c.06.05,0-.31.09-.18v0c.13,0,.24-.1.36.11,0-.21.13.08.1-.21.09.14.07.19.18.28s0-.19,0-.22l0,.15,0-.17,0,.18,0,0a.22.22,0,0,1,0-.11c0-.07.13.09.14.17l.09-.14a.31.31,0,0,1,0,.13c0-.16,0,.16.07,0a.59.59,0,0,1,0-.12c0,.09.1.08.14,0v.11c.08,0,.16-.07.25-.08a.36.36,0,0,1,0-.25l0,.16c0-.1,0-.06,0-.18s0,.18,0,.24l0-.06s0,.07,0,.14c0-.1.09.15.09,0v0c.09,0,.12-.07.2-.09s0-.11,0-.23c.06,0,.13.14.2.12s0-.12,0-.21c0,.13.08.11.06.2s.1,0,.18-.15a.31.31,0,0,1,0-.12s0,0,.05.11h0c.09-.2.3.34.36.06h0l.07-.15s0,.1,0,.17c.07-.22.16,0,.22-.14.11.37.22-.05.34.17l0-.09c0-.09,0,0,.05.07s0-.08,0-.13c.17-.13.4.08.6.14s0-.46.1-.26v.17c.12-.21.29,0,.41-.21,0,0,0,.09,0,.09s.11,0,.1-.1,0,.09,0,.14.05-.16.08,0a.08.08,0,0,1,0,0c0-.06.09,0,.06-.13.06.06.09-.07.14,0,0-.16.1.06.08-.16,0,.22.11.17.13.06,0,.07,0,.07,0,.16s.07-.05,0-.17c.1.26.11-.23.19.11a1.2,1.2,0,0,1,.28-.29c0,.22-.11,0-.07.27.08-.1.11-.3.21-.26s0,.1,0,.14.19,0,.25-.13a.15.15,0,0,1,0,.06s0,0,0-.07v0c0-.14,0-.32,0-.39,0,.3.09.06.09.44a.28.28,0,0,0,0-.14s0,.06,0,.14,0-.17.07-.17,0,.07,0,.13c0-.1,0-.2.08-.16s0,.07,0,.07.1-.27.2-.19,0,.07.07.25l0-.06,0-.09s.06-.14.1-.08l0,.08.07,0-.05-.06c0-.1,0-.23,0-.19s0,0,.08.1h0c0-.06,0-.13.06-.08s0,.21,0,.24c0-.16.09-.05.09-.22a.78.78,0,0,0,0,.16v-.13a.24.24,0,0,1,0,.13c.06,0,0-.23,0-.14a.27.27,0,0,1,0,0c.07,0,.12-.1.19,0s0,.05,0,.21c.08,0,.16-.25.25-.21l0,0c0-.26.08.12.11,0a.47.47,0,0,0,0,.12c.06,0,.11-.08.19-.17v.07c0,.06.1,0,.14,0s0-.06,0-.16c.16.37.19-.23.34.07,0,0,0,.06,0,.06l.08-.07a.55.55,0,0,0,0-.15c0-.07,0-.13,0-.13a.38.38,0,0,0,0,.25s0-.07,0-.11c.07.2,0-.23.06-.1v.06s0-.12.06-.1,0,.06,0,.17,0-.26.09-.13,0,0,0,.08.05.11.08.13h0l.07.06,0,0c0-.35.08-.07.11-.31,0,.22,0,.13,0,.28a.29.29,0,0,1,0,.13c0-.12.06.09.08-.09,0,0,0,0,0,.12,0,0,0-.08,0-.14s.16.18.21-.05.05-.27.11-.36a.33.33,0,0,1,0,.18c0,.07.07.05.1,0a.37.37,0,0,0,0,.13s0-.18,0-.11a1.93,1.93,0,0,1,0,.2s0-.14.07-.19a.47.47,0,0,1,0,.19.28.28,0,0,0,.08-.22l0,0s0,.11,0,.14-.05,0-.06-.09l0,0c-.06-.28-.09.06-.14,0v-.21l0,.18a.4.4,0,0,1,0-.2c0-.1,0,.08-.06,0a.07.07,0,0,1,0,0l0,.07s0-.15,0-.12-.08.17-.12,0h0c-.07.08,0,.15,0,.34l-.09-.37v.15s0,0,0-.07c0,.11,0,.07,0,.17-.06-.13-.1.08-.14-.16,0,.12,0,.08,0,.17,0-.26,0,.05-.1-.06s0-.07,0-.18c0,.23-.08,0-.1,0s-.06.08-.1.15-.11-.09-.17-.15v0c0,.18,0,.16-.07.2a.5.5,0,0,1,0-.2h0a.17.17,0,0,1,0,.12v-.14s-.07.17-.14.09c0,.13.09.35,0,.44a.73.73,0,0,1,0-.22s0,.06,0,0v-.12s0,.1,0,.09,0-.07,0-.15,0,0,0,0a.25.25,0,0,1-.08-.14c0,.06,0,.13,0,.15s0-.12-.06-.16,0,0,0,.15,0-.07,0-.11-.11,0-.06.18h0c-.06.16-.17-.06-.24,0v0c0,.06-.1,0-.12.16s0-.09,0-.14,0,.1-.09,0,0-.07,0-.07-.07-.11-.1,0c0-.13-.05-.15-.07-.11l0,.09s0,0-.07,0v-.17c-.12-.19-.13.36-.24,0,0,.12.06.07.06.21,0,0-.12-.25-.13-.25s0,.25-.09.19a.47.47,0,0,1,0,.28s-.08-.24-.06-.29,0,0,0,0a.12.12,0,0,0,0-.11v.06c0-.06-.09,0-.09-.14a.1.1,0,0,0,0,.13c-.07-.08-.09,0-.15,0s0,.1,0,.1,0,.12-.08.15,0-.22-.06-.13a.3.3,0,0,1,0-.21c0,.12-.11-.06-.14-.08l0-.05s0,0,0,0l0,.12s0,0,0-.07a2.13,2.13,0,0,1,0,.3c0-.06-.06.07-.08-.08.07,0,0-.16,0-.19s0,0,0,0a.07.07,0,0,1,0,0c-.08-.13,0,.18-.07.19s0-.17,0-.14,0,.15,0,.22,0,.06-.06.05l0,0c0,.09,0,.08,0,.11s0-.05,0-.08c0,.16-.09-.15-.13,0,0-.06,0-.17,0-.2,0,.12-.07-.11-.11,0a.27.27,0,0,1,0,.21l.08-.09,0,.18s0-.08.07-.06a.24.24,0,0,0,0,.17c-.06-.17-.06.11-.12,0l0-.29c-.08-.12-.09.16-.19.1l0,0c0,.12,0,0-.07.07a.68.68,0,0,0-.05-.19c0,.07-.06,0,0,.2l-.05-.12c-.07,0,0,.29-.11.26s0-.17,0-.26,0,0,0,.05,0,.14-.07,0,0,.15,0,.14a.27.27,0,0,1,0,0s0,.07,0,.18c-.1-.3-.18,0-.27-.21a.42.42,0,0,1-.14.09s0,0,0,0,0,.29-.08.19,0-.09,0-.15c0-.32-.08.05-.14-.13v0c0-.11-.07.13-.13.12a.28.28,0,0,0,0,0,.42.42,0,0,1-.13.29.48.48,0,0,0,0-.2s0,.2,0,.25a1,1,0,0,1-.09-.26h0c0-.17-.06,0-.09,0v-.08c-.07,0,0,.23-.12.22l0,.06c0,.2,0-.1-.07,0l0-.19a1,1,0,0,1-.12.24,1.25,1.25,0,0,1,.08-.32s-.09,0-.09.12,0-.07,0,0,0,.24-.1.24c0-.38-.15-.08-.23-.37-.08.15-.2,0-.3,0,.08.29,0,0,0,.31,0,0,0,0,0,0l-.1-.17c0-.09,0-.07,0-.14s0-.13-.09-.2c0,.11,0,.16,0,.12l.06.13c-.06.17-.1-.25-.16-.08V229c0,.06-.15,0-.16.27,0,0,0-.12,0-.14s-.18.29-.28.15v-.08s0,.14,0,.07,0-.07,0-.08,0,.14-.06.1v-.09c-.11-.09-.12.22-.19.28a.39.39,0,0,0-.15-.31v0c-.11,0-.17.2-.26.3-.09-.23-.23-.07-.35-.19a.36.36,0,0,1,0,.19s0,.16-.07,0h0c0-.19-.09-.14-.12-.14l0,.26c-.15-.37-.25.17-.34-.16,0,.07,0,.07-.06.14l0-.14a.18.18,0,0,0-.19,0v-.1s0,.41-.05.43l0-.21c-.08,0-.19-.16-.24,0,0,0,0-.09,0-.1s-.17-.12-.12.16c0-.19-.09,0-.12.08v-.14c0,.18,0,.23-.06.29s0-.11,0-.08,0,.13-.07.07v-.09s0,0,0,.15-.08,0-.11-.15c0,.08,0,.18,0,.15a.23.23,0,0,1,0-.09c-.08-.09-.09.17-.15,0a.35.35,0,0,0,0-.08c.06,0,.1,0,.1,0s-.06-.14,0-.32c0,.1-.06.32-.11.26v0h0s0,0,0,0,0,0,0,0-.06-.05-.08-.05,0,.12,0,.23,0,0,0,0v0s0,0,0,0l.06,0c0,.07,0,.14-.05.06,0,.09,0,.18,0,.23-.06-.19-.13-.29-.15-.41-.06.09-.16.07-.17.34,0,0,0-.07,0-.11s0,0,0-.06-.11,0-.1.22c-.06-.08,0-.17-.06-.13v-.06c-.17-.28-.16.49-.35.14a.15.15,0,0,1,0,.06c-.19-.14-.33.2-.53,0-.05,0,0,.07-.06.16l0-.15,0,.18c-.05.14-.17-.35-.23-.1l0,.1s-.09.07-.1,0,0,.11,0,.06v-.08l-.06.14c-.07,0,0-.31-.12-.32a.59.59,0,0,0,0,.29s0,0,.05.12l0,0a1.59,1.59,0,0,0,.12.62l0-.15,0,.11h0c0,.1,0,0,.05-.06a.41.41,0,0,0,0,.12l0-.23c0,.09,0,.18,0,.23,0-.11,0-.2,0-.27,0,.1,0,.19.06.1a.27.27,0,0,1,0,.13c0-.07.06,0,.06-.16,0,.13.08,0,.11.17a.42.42,0,0,1,0-.19c0,.27.09,0,.11.29,0-.24.1-.12.14-.26,0,0,0,.06,0,0s.05.09.08.13a1.16,1.16,0,0,1,0-.37c.06.18,0,.23,0,.41,0-.16,0-.17,0-.3a.71.71,0,0,1,.07.21c0-.24,0,0,0-.2.06.11,0,.23.08.15A.26.26,0,0,1,281.63,231.09Zm1.08-.56h0Zm.09,0h0s0-.1,0-.1S282.79,230.47,282.81,230.51Zm-.32-.94s0,0,0,0l0,0v0S282.48,229.59,282.48,229.57Z" transform="translate(-0.5 0)"/>
      <path class="cls-6" d="M282.48,229.76h0v0Z" transform="translate(-0.5 0)"/>
      <path class="cls-6" d="M291.13,228.89h0v0Z" transform="translate(-0.5 0)"/>
      <polygon class="cls-6" points="283.65 230.62 283.65 230.58 283.64 230.61 283.65 230.62"/>
      <path class="cls-6" d="M291.71,229.3v0Z" transform="translate(-0.5 0)"/>
      <path class="cls-6" d="M291.94,229.3l0,0Z" transform="translate(-0.5 0)"/>
      <path class="cls-6" d="M292.13,229.35s0,0,0-.06h0Z" transform="translate(-0.5 0)"/>
      <path class="cls-6" d="M289.38,229.86h0S289.37,229.88,289.38,229.86Z" transform="translate(-0.5 0)"/>
      <path class="cls-6" d="M290.16,229.43a.43.43,0,0,1,0,.07S290.17,229.51,290.16,229.43Z" transform="translate(-0.5 0)"/>
      <polygon class="cls-6" points="287.98 230.14 287.98 230.14 287.98 230.14 287.98 230.14"/>
      <path class="cls-6" d="M290.11,229.5s0,0,0,0S290.12,229.48,290.11,229.5Z" transform="translate(-0.5 0)"/>
      <path class="cls-6" d="M292.89,229.32h0v0Z" transform="translate(-0.5 0)"/>
      <path class="cls-6" d="M292.9,229.3v0S292.9,229.29,292.9,229.3Z" transform="translate(-0.5 0)"/>
      <path class="cls-6" d="M292.92,229.25l0,0S292.92,229.29,292.92,229.25Z" transform="translate(-0.5 0)"/>
      <path class="cls-6" d="M292.65,229.28v.05A.45.45,0,0,0,292.65,229.28Z" transform="translate(-0.5 0)"/>
      <path class="cls-6" d="M292.58,229.31s.06.1.07.07v0C292.65,229.41,292.59,229.22,292.58,229.31Z" transform="translate(-0.5 0)"/>
      <path class="cls-6" d="M292.21,228.72l.06,0c0-.05,0-.12,0-.14S292.29,228.73,292.21,228.72Z" transform="translate(-0.5 0)"/>
      <path class="cls-6" d="M292,228.66s0-.08,0-.11S292,228.62,292,228.66Z" transform="translate(-0.5 0)"/>
      <path class="cls-6" d="M290.71,228.83v-.13S290.7,228.75,290.71,228.83Z" transform="translate(-0.5 0)"/>
      <polygon class="cls-6" points="290.04 229.51 290.07 229.59 290.07 229.47 290.04 229.51"/>
      <polygon class="cls-6" points="289.77 228.63 289.78 228.61 289.75 228.66 289.77 228.63"/>
      <path class="cls-6" d="M288.07,228.95l0,.16S288.09,228.9,288.07,228.95Z" transform="translate(-0.5 0)"/>
      <path class="cls-6" d="M287.14,229.23c0-.08-.05-.12-.06,0S287.13,229.25,287.14,229.23Z" transform="translate(-0.5 0)"/>
      <polygon class="cls-6" points="283.75 229.33 283.76 229.28 283.73 229.32 283.75 229.33"/>
    </g>
  </g>
  <g>
    <line class="cls-5" x1="281.55" y1="230.23" x2="281.55" y2="232"/>
    <g>
      <path class="cls-6" d="M281.71,232h0Z" transform="translate(-0.5 0)"/>
      <path class="cls-6" d="M282,232h-.14c.13,0,.13,0,0,0Z" transform="translate(-0.5 0)"/>
      <path class="cls-6" d="M282.28,231.73h0Z" transform="translate(-0.5 0)"/>
      <path class="cls-6" d="M282.37,231.58h0Z" transform="translate(-0.5 0)"/>
      <path class="cls-6" d="M282.55,231.55h0Z" transform="translate(-0.5 0)"/>
      <path class="cls-6" d="M282.28,231.73h0Z" transform="translate(-0.5 0)"/>
      <path class="cls-6" d="M281.62,231.95h0Z" transform="translate(-0.5 0)"/>
      <path class="cls-6" d="M282.41,231.8h0Z" transform="translate(-0.5 0)"/>
      <path class="cls-6" d="M282.44,231.85h0Z" transform="translate(-0.5 0)"/>
      <path class="cls-6" d="M282.19,231.94h0Z" transform="translate(-0.5 0)"/>
      <path class="cls-6" d="M282.44,231.76h0Z" transform="translate(-0.5 0)"/>
      <path class="cls-6" d="M281.39,230.29h0Z" transform="translate(-0.5 0)"/>
      <path class="cls-6" d="M282.08,230.23h0Z" transform="translate(-0.5 0)"/>
      <path class="cls-6" d="M282.73,231.5h0Z" transform="translate(-0.5 0)"/>
      <path class="cls-6" d="M282.63,231.06h0Z" transform="translate(-0.5 0)"/>
      <path class="cls-6" d="M281.64,231.95h0Z" transform="translate(-0.5 0)"/>
      <path class="cls-6" d="M282.33,231.06h0Z" transform="translate(-0.5 0)"/>
      <path class="cls-6" d="M282.65,231.39h0Z" transform="translate(-0.5 0)"/>
      <path class="cls-6" d="M282.45,231.47h0Z" transform="translate(-0.5 0)"/>
      <path class="cls-6" d="M282.45,231.35h0S282.47,231.35,282.45,231.35Z" transform="translate(-0.5 0)"/>
      <path class="cls-6" d="M282.45,231.3h0Z" transform="translate(-0.5 0)"/>
      <path class="cls-6" d="M281.46,230.43h0Z" transform="translate(-0.5 0)"/>
      <path class="cls-6" d="M281.7,231.95h0Z" transform="translate(-0.5 0)"/>
      <path class="cls-6" d="M281.34,231.34h0Z" transform="translate(-0.5 0)"/>
      <path class="cls-6" d="M281.48,230.75h0Z" transform="translate(-0.5 0)"/>
      <path class="cls-6" d="M281.34,231.32h0Z" transform="translate(-0.5 0)"/>
      <path class="cls-6" d="M281.58,230.43h0Z" transform="translate(-0.5 0)"/>
      <path class="cls-6" d="M281.25,230.38h.19c.15,0,0,0,.19,0h.21s.12,0,0,0h-.22c.06,0,.2,0,.15,0h-.41s.09,0,0,0h.23c.17,0-.43,0-.2,0s.33,0,.21,0h-.19s.28,0,.15,0h-.09c-.15,0,.11,0,.11,0h-.17l.18,0h-.16c.08,0,0,0-.12,0h.07c.12,0,.27,0,.11,0h0c-.06,0,.3,0,.16,0h0c-.06,0,.07,0-.15,0,.21,0-.09,0,.2,0l-.3,0h.19c.07,0-.11,0-.19,0l.13,0h-.12c.16,0-.16,0,0,0h.12c-.09,0-.09,0-.05,0h-.11s.05,0,0,0h0c.1,0-.16,0,0,0h0s.05,0,.06,0h.22s-.16,0-.14,0h0l.13,0h0c.19,0-.37,0-.11,0h0c.21,0,0,0,.11,0-.38,0,0,0-.21,0h.09c.09,0-.05,0-.07,0h.13c.11,0-.13.05-.21.08s.46,0,.25,0h-.17c.2,0,0,0,.16.06h-.09c-.12,0,0,0,.09,0h-.14c-.07,0,.15,0,0,0h0c.06,0,0,0,.12,0-.07,0,.06,0,0,0,.15,0-.07,0,.14,0-.23,0-.18,0-.08,0h0c-.27,0,.22,0-.13,0l.26,0c-.23,0,0,0-.26,0,.09,0,.29,0,.23,0h-.14c.09,0,0,0,.1,0h.37c-.29,0-.07,0-.45,0h0c.1,0,.19,0,.15,0h-.07s.26,0,.16,0h-.11s.13,0,.07,0h.1c.06,0,.12,0,.08,0h-.25l.21,0h-.17s.24,0,.13,0h0c-.05,0,.08,0,0,0h-.2s.23,0,.18,0h0c.27,0-.13,0,0,0h-.12s.07,0,.15,0h-.07c-.06,0,0,0-.07,0h.16c-.39,0,.21,0-.12,0h.14c-.21,0,.23,0,.09,0h-.14s.25,0,.12,0h-.24a2.4,2.4,0,0,1,.29,0h-.41c.12,0-.1,0,.08,0h0c.17,0-.2,0,0,0l.34,0h-.18c-.07,0-.06,0,0,0h-.13s.18,0,.11,0h-.08c-.11,0,0,0,.1,0h0c.29,0,0,0,0,0h.24c.1,0-.07,0,0,0h.09c.12,0-.16,0,0,0h-.18c.14,0-.07,0,.18,0h-.17c.26,0,0,0,.08,0h.18c-.23,0,0,0,0,0s-.08,0-.14,0l.17,0h0a.55.55,0,0,1-.19,0h.23s-.16,0-.07,0h-.08s0,0,0,0h.14a.67.67,0,0,0-.18,0h0c-.15,0,.08,0,0,0h0l-.14,0h.15s-.09,0,0,0h.06s.12,0,0,0c.13,0,.16,0,.12,0h-.09s0,0,0,0h.17c.2,0-.34,0,0,0h0c.09,0-.24,0-.18,0h.06c.09,0,0,0,.06,0h-.1c.07,0-.11,0-.14,0s.22,0,.14,0h.21c-.11,0,.08,0,.1,0h-.33c.06,0-.06,0,.09,0-.05,0,.16,0,.18,0s0,0,0,0h0c.14,0-.18,0-.17,0h-.07c.07,0-.05,0,0,0h-.06c-.16,0,.16,0,.06,0h.21c-.12,0,.12,0,0,0h-.41c.18,0-.1,0,0,0h.3c.13,0-.15,0-.08,0h-.05c-.12,0,0,0-.06,0h.14c.05,0-.28,0-.25,0h.2c.06,0-.13,0,0,0h-.27c.31,0,0,0,.24,0l-.07,0h0c.09,0-.28,0-.18,0h.15c.32,0,0,0,.15,0h0c.11,0-.12,0-.1,0h0l-.27,0h.23c.18,0,0,0,0,0h.08s-.22,0-.21,0h-.06c-.19,0,.11,0,0,0h.2l-.23,0,.31,0s0,0-.11,0h0l-.23,0c.38,0,.1,0,.39,0-.14,0,.06,0,0,0h-.31s0,0,0,0h.27c-.16,0,.26,0,.1,0h.1a.66.66,0,0,0-.24,0h.14s-.26,0-.11,0h.07s-.14,0-.07,0h.08c.1,0-.2,0-.26,0a2.09,2.09,0,0,0,.33,0h0s-.18,0-.27,0c.24,0,.1,0,.23,0h-.19s-.15,0,0,0h0c.2,0,.15,0,.15,0h-.26c.38,0-.14,0,.2,0h0s.05,0,0,0h-.1s.18,0,0,0h.1s.14,0-.15,0c.19,0,0,0-.06,0h-.06c.07,0-.13,0-.06,0h.06c.09,0-.16,0,0,0h.39c-.1,0-.31,0-.25,0h.08c.11,0,.06,0,.06,0h-.2c-.07,0-.13,0-.05,0h.2a1.33,1.33,0,0,0-.32,0h.18a.89.89,0,0,0-.21,0c.08,0,.17,0,.14,0h.06c.29,0-.47,0-.09-.05h-.06c.17,0-.16,0,.11-.07.05,0-.06,0-.15,0h0c-.13,0,.37,0,.13,0h-.1s-.06,0,.06,0h-.11c.06,0,.31,0,.33,0h-1.06c-.11,0,0,0,.05,0h.07a1,1,0,0,1-.19,0h.18c-.26,0,0,0-.3,0a1.19,1.19,0,0,1,.24,0h0c-.12,0-.23,0-.15,0Zm.42.16h0Zm0,0h0Zm1,0h0Z" transform="translate(-0.5 0)"/>
      <path class="cls-6" d="M282.46,230.52h0Z" transform="translate(-0.5 0)"/>
      <path class="cls-6" d="M282.26,231.73h0Z" transform="translate(-0.5 0)"/>
      <polygon class="cls-6" points="280.91 230.74 280.94 230.74 280.91 230.74 280.91 230.74"/>
      <path class="cls-6" d="M281.77,231.81h0Z" transform="translate(-0.5 0)"/>
      <path class="cls-6" d="M281.74,231.84h0Z" transform="translate(-0.5 0)"/>
      <path class="cls-6" d="M281.67,231.86h0Z" transform="translate(-0.5 0)"/>
      <path class="cls-6" d="M281.51,231.47h0Z" transform="translate(-0.5 0)"/>
      <path class="cls-6" d="M281.84,231.59h0Z" transform="translate(-0.5 0)"/>
      <polygon class="cls-6" points="280.84 231.35 280.84 231.35 280.84 231.34 280.84 231.35"/>
      <path class="cls-6" d="M281.77,231.58s0,0,0,0S281.79,231.58,281.77,231.58Z" transform="translate(-0.5 0)"/>
      <path class="cls-6" d="M281.61,232h0Z" transform="translate(-0.5 0)"/>
      <path class="cls-6" d="M281.63,232h0Z" transform="translate(-0.5 0)"/>
      <path class="cls-6" d="M281.68,232h0Z" transform="translate(-0.5 0)"/>
      <path class="cls-6" d="M281.67,231.94h0Z" transform="translate(-0.5 0)"/>
      <path class="cls-6" d="M281.66,231.93h0C281.55,231.94,281.75,231.93,281.66,231.93Z" transform="translate(-0.5 0)"/>
      <path class="cls-6" d="M282.29,231.89h.1C282.55,231.88,282.27,231.9,282.29,231.89Z" transform="translate(-0.5 0)"/>
      <path class="cls-6" d="M282.37,231.86h0Z" transform="translate(-0.5 0)"/>
      <path class="cls-6" d="M282.37,231.68h0Z" transform="translate(-0.5 0)"/>
      <polygon class="cls-6" points="281.21 231.64 281.13 231.64 281.25 231.65 281.21 231.64"/>
      <polygon class="cls-6" points="282.12 231.62 282.14 231.62 282.09 231.62 282.12 231.62"/>
      <path class="cls-6" d="M282.57,231.31h0Z" transform="translate(-0.5 0)"/>
      <path class="cls-6" d="M282.41,231.18c.08,0,.13,0,.05,0Z" transform="translate(-0.5 0)"/>
      <polygon class="cls-6" points="282.17 230.77 282.22 230.78 282.18 230.77 282.17 230.77"/>
    </g>
  </g>
  <g>
    <line class="cls-5" x1="283.12" y1="230.23" x2="283.12" y2="232"/>
    <g>
      <path class="cls-6" d="M283.29,232h0Z" transform="translate(-0.5 0)"/>
      <path class="cls-6" d="M283.59,232h-.14c.13,0,.13,0,0,0Z" transform="translate(-0.5 0)"/>
      <path class="cls-6" d="M283.85,231.73h0Z" transform="translate(-0.5 0)"/>
      <path class="cls-6" d="M283.94,231.58h0Z" transform="translate(-0.5 0)"/>
      <path class="cls-6" d="M284.12,231.55h0Z" transform="translate(-0.5 0)"/>
      <path class="cls-6" d="M283.85,231.73h0Z" transform="translate(-0.5 0)"/>
      <path class="cls-6" d="M283.19,231.95h0Z" transform="translate(-0.5 0)"/>
      <path class="cls-6" d="M284,231.8h0Z" transform="translate(-0.5 0)"/>
      <path class="cls-6" d="M284,231.85h0Z" transform="translate(-0.5 0)"/>
      <path class="cls-6" d="M283.76,231.94h0Z" transform="translate(-0.5 0)"/>
      <path class="cls-6" d="M284,231.76h0Z" transform="translate(-0.5 0)"/>
      <path class="cls-6" d="M283,230.29h0Z" transform="translate(-0.5 0)"/>
      <path class="cls-6" d="M283.66,230.23h0Z" transform="translate(-0.5 0)"/>
      <path class="cls-6" d="M284.3,231.5h0Z" transform="translate(-0.5 0)"/>
      <path class="cls-6" d="M284.2,231.06h0Z" transform="translate(-0.5 0)"/>
      <path class="cls-6" d="M283.21,231.95h0Z" transform="translate(-0.5 0)"/>
      <path class="cls-6" d="M283.9,231.06h0Z" transform="translate(-0.5 0)"/>
      <path class="cls-6" d="M284.22,231.39h0Z" transform="translate(-0.5 0)"/>
      <path class="cls-6" d="M284,231.47h0Z" transform="translate(-0.5 0)"/>
      <path class="cls-6" d="M284,231.35h0S284,231.35,284,231.35Z" transform="translate(-0.5 0)"/>
      <path class="cls-6" d="M284,231.3h0Z" transform="translate(-0.5 0)"/>
      <path class="cls-6" d="M283,230.43h0Z" transform="translate(-0.5 0)"/>
      <path class="cls-6" d="M283.27,231.95h0Z" transform="translate(-0.5 0)"/>
      <path class="cls-6" d="M282.91,231.34h0Z" transform="translate(-0.5 0)"/>
      <path class="cls-6" d="M283,230.75h0Z" transform="translate(-0.5 0)"/>
      <path class="cls-6" d="M282.91,231.32h0Z" transform="translate(-0.5 0)"/>
      <path class="cls-6" d="M283.15,230.43h0Z" transform="translate(-0.5 0)"/>
      <path class="cls-6" d="M282.82,230.38H283c.15,0,0,0,.19,0h.21s.12,0,0,0h-.22c.06,0,.2,0,.15,0h-.41s.09,0,0,0h.23c.17,0-.43,0-.2,0s.33,0,.21,0H283s.28,0,.15,0h-.09c-.15,0,.11,0,.11,0H283l.18,0H283c.08,0,0,0-.12,0H283c.12,0,.27,0,.11,0h0c-.06,0,.3,0,.16,0h0c-.06,0,.07,0-.15,0,.21,0-.09,0,.2,0l-.3,0h.19c.07,0-.11,0-.19,0l.13,0H283c.16,0-.16,0,0,0h.12c-.09,0-.09,0-.05,0h-.11s.05,0,0,0h0c.1,0-.16,0,0,0h0s.05,0,.06,0h.22s-.16,0-.14,0h0l.13,0h0c.19,0-.37,0-.11,0h0c.21,0,0,0,.11,0-.38,0,0,0-.21,0H283c.09,0-.05,0-.07,0H283c.11,0-.13.05-.21.08s.46,0,.25,0h-.17c.2,0,0,0,.16.06H283c-.12,0,0,0,.09,0h-.14c-.07,0,.15,0,0,0h0c.06,0,0,0,.12,0-.07,0,.06,0,0,0,.15,0-.07,0,.14,0-.23,0-.18,0-.08,0h0c-.27,0,.22,0-.13,0l.26,0c-.23,0,0,0-.26,0,.09,0,.29,0,.23,0H283c.09,0,0,0,.1,0h.37c-.29,0-.07,0-.45,0h0c.1,0,.19,0,.15,0h-.07s.26,0,.16,0h-.11s.13,0,.07,0h.1c.06,0,.12,0,.08,0h-.25l.21,0h-.17s.24,0,.13,0h0c-.05,0,.08,0,0,0h-.2s.23,0,.18,0h0c.27,0-.13,0,0,0h-.12s.07,0,.15,0h-.07c-.06,0,0,0-.07,0h.16c-.39,0,.21,0-.12,0h.14c-.21,0,.23,0,.09,0h-.14s.25,0,.12,0h-.24a2.4,2.4,0,0,1,.29,0h-.41c.12,0-.1,0,.08,0h0c.17,0-.2,0,0,0l.34,0h-.18c-.07,0-.06,0,0,0h-.13s.18,0,.11,0h-.08c-.11,0,0,0,.1,0h0c.29,0,0,0,0,0h.24c.1,0-.07,0,0,0h.09c.12,0-.16,0,0,0h-.18c.14,0-.07,0,.18,0h-.17c.26,0,0,0,.08,0h.18c-.23,0,0,0,0,0s-.08,0-.14,0l.17,0h0a.55.55,0,0,1-.19,0H284s-.16,0-.07,0h-.08s0,0,0,0H284a.67.67,0,0,0-.18,0h0c-.15,0,.08,0,0,0h0l-.14,0h.15s-.09,0,0,0h.06s.12,0,0,0c.13,0,.16,0,.12,0H284s0,0,0,0h.17c.2,0-.34,0,0,0h0c.09,0-.24,0-.18,0h.06c.09,0,0,0,.06,0H284c.07,0-.11,0-.14,0s.22,0,.14,0h.21c-.11,0,.08,0,.1,0H284c.06,0-.06,0,.09,0-.05,0,.16,0,.18,0s0,0,0,0h0c.14,0-.18,0-.17,0h-.07c.07,0-.05,0,0,0H284c-.16,0,.16,0,.06,0h.21c-.12,0,.12,0,0,0h-.41c.18,0-.1,0,0,0h.3c.13,0-.15,0-.08,0H284c-.12,0,0,0-.06,0h.14c.05,0-.28,0-.25,0h.2c.06,0-.13,0,0,0h-.27c.31,0,0,0,.24,0l-.07,0h0c.09,0-.28,0-.18,0h.15c.32,0,0,0,.15,0h0c.11,0-.12,0-.1,0h0l-.27,0H284c.18,0,0,0,0,0h.08s-.22,0-.21,0h-.06c-.19,0,.11,0,0,0h.2l-.23,0,.31,0s0,0-.11,0h0l-.23,0c.38,0,.1,0,.39,0-.14,0,.06,0,0,0h-.31s0,0,0,0h.27c-.16,0,.26,0,.1,0h.1a.66.66,0,0,0-.24,0h.14s-.26,0-.11,0h.07s-.14,0-.07,0h.08c.1,0-.2,0-.26,0a2.09,2.09,0,0,0,.33,0h0s-.18,0-.27,0c.24,0,.1,0,.23,0h-.19s-.15,0,0,0h0c.2,0,.15,0,.15,0H284c.38,0-.14,0,.2,0h0s.05,0,0,0h-.1s.18,0,0,0h.1s.14,0-.15,0c.19,0,0,0-.06,0H284c.07,0-.13,0-.06,0H284c.09,0-.16,0,0,0h.39c-.1,0-.31,0-.25,0h.08c.11,0,.06,0,.06,0H284c-.07,0-.13,0-.05,0h.2a1.33,1.33,0,0,0-.32,0h.18a.89.89,0,0,0-.21,0c.08,0,.17,0,.14,0H284c.29,0-.47,0-.09-.05h-.06c.17,0-.16,0,.11-.07.05,0-.06,0-.15,0h0c-.13,0,.37,0,.13,0h-.1s-.06,0,.06,0h-.11c.06,0,.31,0,.33,0h-1.06c-.11,0,0,0,.05,0h.07a1,1,0,0,1-.19,0h.18c-.26,0,0,0-.3,0a1.19,1.19,0,0,1,.24,0h0c-.12,0-.23,0-.15,0Zm.42.16h0Zm0,0h0Zm1,0h0Z" transform="translate(-0.5 0)"/>
      <path class="cls-6" d="M284,230.52h0Z" transform="translate(-0.5 0)"/>
      <path class="cls-6" d="M283.83,231.73h0Z" transform="translate(-0.5 0)"/>
      <polygon class="cls-6" points="282.48 230.74 282.51 230.74 282.48 230.74 282.48 230.74"/>
      <path class="cls-6" d="M283.35,231.81h0Z" transform="translate(-0.5 0)"/>
      <path class="cls-6" d="M283.31,231.84h0Z" transform="translate(-0.5 0)"/>
      <path class="cls-6" d="M283.24,231.86h0Z" transform="translate(-0.5 0)"/>
      <path class="cls-6" d="M283.08,231.47h0Z" transform="translate(-0.5 0)"/>
      <path class="cls-6" d="M283.41,231.59h0Z" transform="translate(-0.5 0)"/>
      <polygon class="cls-6" points="282.41 231.35 282.41 231.35 282.41 231.34 282.41 231.35"/>
      <path class="cls-6" d="M283.34,231.58s0,0,0,0S283.37,231.58,283.34,231.58Z" transform="translate(-0.5 0)"/>
      <path class="cls-6" d="M283.18,232h0Z" transform="translate(-0.5 0)"/>
      <path class="cls-6" d="M283.2,232h0Z" transform="translate(-0.5 0)"/>
      <path class="cls-6" d="M283.25,232h0Z" transform="translate(-0.5 0)"/>
      <path class="cls-6" d="M283.25,231.94h0Z" transform="translate(-0.5 0)"/>
      <path class="cls-6" d="M283.23,231.93h0C283.12,231.94,283.32,231.93,283.23,231.93Z" transform="translate(-0.5 0)"/>
      <path class="cls-6" d="M283.86,231.89h.1C284.12,231.88,283.84,231.9,283.86,231.89Z" transform="translate(-0.5 0)"/>
      <path class="cls-6" d="M283.94,231.86h0Z" transform="translate(-0.5 0)"/>
      <path class="cls-6" d="M283.94,231.68h0Z" transform="translate(-0.5 0)"/>
      <polygon class="cls-6" points="282.78 231.64 282.7 231.64 282.82 231.65 282.78 231.64"/>
      <polygon class="cls-6" points="283.69 231.62 283.71 231.62 283.66 231.62 283.69 231.62"/>
      <path class="cls-6" d="M284.14,231.31h0Z" transform="translate(-0.5 0)"/>
      <path class="cls-6" d="M284,231.18c.08,0,.13,0,.05,0Z" transform="translate(-0.5 0)"/>
      <polygon class="cls-6" points="283.74 230.77 283.79 230.78 283.75 230.77 283.74 230.77"/>
    </g>
  </g>
  <g>
    <line class="cls-5" x1="289.4" y1="228.66" x2="289.4" y2="230.43"/>
    <g>
      <path class="cls-6" d="M289.57,230.43h0Z" transform="translate(-0.5 0)"/>
      <path class="cls-6" d="M289.88,230.41h-.14c.13,0,.13,0,0,0Z" transform="translate(-0.5 0)"/>
      <path class="cls-6" d="M290.14,230.16h0Z" transform="translate(-0.5 0)"/>
      <path class="cls-6" d="M290.23,230h0Z" transform="translate(-0.5 0)"/>
      <path class="cls-6" d="M290.41,230h0Z" transform="translate(-0.5 0)"/>
      <path class="cls-6" d="M290.14,230.16h0Z" transform="translate(-0.5 0)"/>
      <path class="cls-6" d="M289.48,230.38h0Z" transform="translate(-0.5 0)"/>
      <path class="cls-6" d="M290.27,230.23h0Z" transform="translate(-0.5 0)"/>
      <path class="cls-6" d="M290.3,230.28h0Z" transform="translate(-0.5 0)"/>
      <path class="cls-6" d="M290,230.36h0Z" transform="translate(-0.5 0)"/>
      <path class="cls-6" d="M290.3,230.19h0Z" transform="translate(-0.5 0)"/>
      <path class="cls-6" d="M289.25,228.72h0Z" transform="translate(-0.5 0)"/>
      <path class="cls-6" d="M289.94,228.66h0Z" transform="translate(-0.5 0)"/>
      <path class="cls-6" d="M290.59,229.93h0Z" transform="translate(-0.5 0)"/>
      <path class="cls-6" d="M290.49,229.48h0Z" transform="translate(-0.5 0)"/>
      <path class="cls-6" d="M289.5,230.38h0Z" transform="translate(-0.5 0)"/>
      <path class="cls-6" d="M290.19,229.48h0Z" transform="translate(-0.5 0)"/>
      <path class="cls-6" d="M290.51,229.82h0Z" transform="translate(-0.5 0)"/>
      <path class="cls-6" d="M290.31,229.9h0Z" transform="translate(-0.5 0)"/>
      <path class="cls-6" d="M290.31,229.78h0S290.33,229.77,290.31,229.78Z" transform="translate(-0.5 0)"/>
      <path class="cls-6" d="M290.31,229.73h0Z" transform="translate(-0.5 0)"/>
      <path class="cls-6" d="M289.31,228.86h0Z" transform="translate(-0.5 0)"/>
      <path class="cls-6" d="M289.56,230.38h0Z" transform="translate(-0.5 0)"/>
      <path class="cls-6" d="M289.2,229.77h0Z" transform="translate(-0.5 0)"/>
      <path class="cls-6" d="M289.33,229.18h0Z" transform="translate(-0.5 0)"/>
      <path class="cls-6" d="M289.2,229.74h0Z" transform="translate(-0.5 0)"/>
      <path class="cls-6" d="M289.44,228.86h0Z" transform="translate(-0.5 0)"/>
      <path class="cls-6" d="M289.11,228.81h.19c.15,0,0,0,.19,0h.21s.12,0,0,0h-.22c.06,0,.2,0,.15,0h-.41s.09,0,0,0h.23c.17,0-.43,0-.2,0s.33,0,.21,0h-.19s.28,0,.15,0h-.09c-.15,0,.11,0,.11,0h-.17l.18,0h-.16c.08,0,0,0-.12,0h.07c.12,0,.27,0,.11,0h0c-.06,0,.3,0,.16,0h0c-.06,0,.07,0-.15,0,.21,0-.09,0,.2,0l-.3,0h.19c.07,0-.11,0-.19,0l.13,0h-.12c.16,0-.16,0,0,0h.12c-.09,0-.09,0-.05,0h-.11s.05,0,0,0h0c.1,0-.16,0,0,0h0s.05,0,.06,0h.22s-.16,0-.14,0h0l.13,0h0c.19,0-.37,0-.11,0h0c.21,0,0,0,.11,0-.38,0,0,0-.21,0h.09c.09,0-.05,0-.07,0h.13c.11,0-.13.05-.21.08s.46,0,.25,0h-.17c.2,0,0,0,.16.06h-.09c-.12,0,0,0,.09,0h-.14c-.07,0,.15,0,0,0h0c.06,0,0,0,.12,0-.07,0,.06,0,0,0,.15,0-.07,0,.14,0-.23,0-.18,0-.08,0h0c-.27,0,.22,0-.13,0l.26,0c-.23,0,0,0-.26,0,.09,0,.29,0,.23,0h-.14c.09,0,0,0,.1,0h.37c-.29,0-.07,0-.45,0h0c.1,0,.19,0,.15,0h-.07s.26,0,.16,0h-.11s.13,0,.07,0h.1c.06,0,.12,0,.08,0h-.25l.21,0h-.17s.24,0,.13,0h0c-.05,0,.08,0,0,0h-.2s.23,0,.18,0h0c.27,0-.13,0,0,0h-.12s.07,0,.15,0h-.07c-.06,0,0,0-.07,0h.16c-.39,0,.21,0-.12,0h.14c-.21,0,.23,0,.09,0h-.14s.25,0,.12,0h-.24a2.4,2.4,0,0,1,.29,0h-.41c.12,0-.1,0,.08,0h0c.17,0-.2,0,0,0l.34,0h-.18c-.07,0-.06,0,0,0h-.13s.18,0,.11,0h-.08c-.11,0,0,0,.1,0h0c.29,0,0,0,0,0H290c.1,0-.07,0,0,0h.09c.12,0-.16,0,0,0h-.18c.14,0-.07,0,.18,0h-.17c.26,0,0,0,.08,0h.18c-.23,0,0,0,0,0s-.08,0-.14,0l.17,0h0a.55.55,0,0,1-.19,0h.23s-.16,0-.07,0h-.08s0,0,0,0h.14a.67.67,0,0,0-.18,0h0c-.15,0,.08,0,0,0h0l-.14,0h.15s-.09,0,0,0h.06s.12,0,0,0c.13,0,.16,0,.12,0h-.09s0,0,0,0h.17c.2,0-.34,0,0,0h0c.09,0-.24,0-.18,0h.06c.09,0,0,0,.06,0h-.1c.07,0-.11,0-.14,0s.22,0,.14,0h.21c-.11,0,.08,0,.1,0h-.33c.06,0-.06,0,.09,0-.05,0,.16,0,.18,0s0,0,0,0h0c.14,0-.18,0-.17,0h-.07c.07,0-.05,0,0,0h-.06c-.16,0,.16,0,.06,0h.21c-.12,0,.12,0,0,0h-.41c.18,0-.1,0,0,0h.3c.13,0-.15,0-.08,0h-.05c-.12,0,0,0-.06,0h.14c.05,0-.28,0-.25,0h.2c.06,0-.13,0,0,0H290c.31,0,0,0,.24,0l-.07,0h0c.09,0-.28,0-.18,0h.15c.32,0,0,0,.15,0h0c.11,0-.12,0-.1,0h0l-.27,0h.23c.18,0,0,0,0,0h.08s-.22,0-.21,0h-.06c-.19,0,.11,0,0,0h.2l-.23,0,.31,0s0,0-.11,0h0l-.23,0c.38,0,.1,0,.39,0-.14,0,.06,0,0,0h-.31s0,0,0,0h.27c-.16,0,.26,0,.1,0h.1a.66.66,0,0,0-.24,0h.14s-.26,0-.11,0h.07s-.14,0-.07,0h.08c.1,0-.2,0-.26,0a2.09,2.09,0,0,0,.33,0h0s-.18,0-.27,0c.24,0,.1,0,.23,0h-.19s-.15,0,0,0h0c.2,0,.15,0,.15,0h-.26c.38,0-.14,0,.2,0h0s.05,0,0,0h-.1s.18,0,0,0h.1s.14,0-.15,0c.19,0,0,0-.06,0h-.06c.07,0-.13,0-.06,0h.06c.09,0-.16,0,0,0h.39c-.1,0-.31,0-.25,0h.08c.11,0,.06,0,.06,0h-.2c-.07,0-.13,0-.05,0h.2a1.33,1.33,0,0,0-.32,0h.18a.89.89,0,0,0-.21,0c.08,0,.17,0,.14,0h.06c.29,0-.47,0-.09-.05h-.06c.17,0-.16,0,.11-.07.05,0-.06,0-.15,0h0c-.13,0,.37,0,.13,0h-.1s-.06,0,.06,0h-.11c.06,0,.31,0,.33,0h-1.06c-.11,0,0,0,.05,0h.07a1.05,1.05,0,0,1-.19,0h.18c-.26,0,0,0-.3,0a1.19,1.19,0,0,1,.24,0h0c-.12,0-.23,0-.15,0Zm.42.16h0Zm0,0h0Zm1,0h0Z" transform="translate(-0.5 0)"/>
      <path class="cls-6" d="M290.32,228.95h0Z" transform="translate(-0.5 0)"/>
      <path class="cls-6" d="M290.11,230.16h0Z" transform="translate(-0.5 0)"/>
      <polygon class="cls-6" points="288.76 229.17 288.8 229.17 288.77 229.16 288.76 229.17"/>
      <path class="cls-6" d="M289.63,230.24h0Z" transform="translate(-0.5 0)"/>
      <path class="cls-6" d="M289.6,230.27h0Z" transform="translate(-0.5 0)"/>
      <path class="cls-6" d="M289.53,230.29h0Z" transform="translate(-0.5 0)"/>
      <path class="cls-6" d="M289.37,229.9h0Z" transform="translate(-0.5 0)"/>
      <path class="cls-6" d="M289.69,230h0Z" transform="translate(-0.5 0)"/>
      <polygon class="cls-6" points="288.7 229.77 288.7 229.77 288.7 229.77 288.7 229.77"/>
      <path class="cls-6" d="M289.63,230s0,0,0,0S289.65,230,289.63,230Z" transform="translate(-0.5 0)"/>
      <path class="cls-6" d="M289.47,230.4h0Z" transform="translate(-0.5 0)"/>
      <path class="cls-6" d="M289.48,230.4h0Z" transform="translate(-0.5 0)"/>
      <path class="cls-6" d="M289.54,230.4h0Z" transform="translate(-0.5 0)"/>
      <path class="cls-6" d="M289.53,230.37h0Z" transform="translate(-0.5 0)"/>
      <path class="cls-6" d="M289.52,230.36h0C289.4,230.36,289.6,230.36,289.52,230.36Z" transform="translate(-0.5 0)"/>
      <path class="cls-6" d="M290.15,230.32h.1C290.41,230.31,290.12,230.33,290.15,230.32Z" transform="translate(-0.5 0)"/>
      <path class="cls-6" d="M290.23,230.29h0Z" transform="translate(-0.5 0)"/>
      <path class="cls-6" d="M290.23,230.1h0Z" transform="translate(-0.5 0)"/>
      <polygon class="cls-6" points="289.06 230.07 288.99 230.07 289.1 230.07 289.06 230.07"/>
      <polygon class="cls-6" points="289.98 230.05 289.99 230.05 289.95 230.04 289.98 230.05"/>
      <path class="cls-6" d="M290.43,229.74h0Z" transform="translate(-0.5 0)"/>
      <path class="cls-6" d="M290.27,229.6c.08,0,.13,0,.05,0Z" transform="translate(-0.5 0)"/>
      <polygon class="cls-6" points="290.03 229.2 290.08 229.21 290.04 229.2 290.03 229.2"/>
    </g>
  </g>
  <g>
    <line class="cls-5" x1="290.98" y1="228.66" x2="290.98" y2="230.43"/>
    <g>
      <path class="cls-6" d="M291.14,230.43h0Z" transform="translate(-0.5 0)"/>
      <path class="cls-6" d="M291.45,230.41h-.14c.13,0,.13,0,0,0Z" transform="translate(-0.5 0)"/>
      <path class="cls-6" d="M291.71,230.16h0Z" transform="translate(-0.5 0)"/>
      <path class="cls-6" d="M291.8,230h0Z" transform="translate(-0.5 0)"/>
      <path class="cls-6" d="M292,230h0Z" transform="translate(-0.5 0)"/>
      <path class="cls-6" d="M291.71,230.16h0Z" transform="translate(-0.5 0)"/>
      <path class="cls-6" d="M291.05,230.38h0Z" transform="translate(-0.5 0)"/>
      <path class="cls-6" d="M291.84,230.23h0Z" transform="translate(-0.5 0)"/>
      <path class="cls-6" d="M291.87,230.28h0Z" transform="translate(-0.5 0)"/>
      <path class="cls-6" d="M291.62,230.36h0Z" transform="translate(-0.5 0)"/>
      <path class="cls-6" d="M291.87,230.19h0Z" transform="translate(-0.5 0)"/>
      <path class="cls-6" d="M290.82,228.72h0Z" transform="translate(-0.5 0)"/>
      <path class="cls-6" d="M291.51,228.66h0Z" transform="translate(-0.5 0)"/>
      <path class="cls-6" d="M292.16,229.93h0Z" transform="translate(-0.5 0)"/>
      <path class="cls-6" d="M292.06,229.48h0Z" transform="translate(-0.5 0)"/>
      <path class="cls-6" d="M291.07,230.38h0Z" transform="translate(-0.5 0)"/>
      <path class="cls-6" d="M291.76,229.48h0Z" transform="translate(-0.5 0)"/>
      <path class="cls-6" d="M292.08,229.82h0Z" transform="translate(-0.5 0)"/>
      <path class="cls-6" d="M291.88,229.9h0Z" transform="translate(-0.5 0)"/>
      <path class="cls-6" d="M291.88,229.78h0S291.9,229.77,291.88,229.78Z" transform="translate(-0.5 0)"/>
      <path class="cls-6" d="M291.88,229.73h0Z" transform="translate(-0.5 0)"/>
      <path class="cls-6" d="M290.88,228.86h0Z" transform="translate(-0.5 0)"/>
      <path class="cls-6" d="M291.13,230.38h0Z" transform="translate(-0.5 0)"/>
      <path class="cls-6" d="M290.77,229.77h0Z" transform="translate(-0.5 0)"/>
      <path class="cls-6" d="M290.9,229.18h0Z" transform="translate(-0.5 0)"/>
      <path class="cls-6" d="M290.77,229.74h0Z" transform="translate(-0.5 0)"/>
      <path class="cls-6" d="M291,228.86h0Z" transform="translate(-0.5 0)"/>
      <path class="cls-6" d="M290.68,228.81h.19c.15,0,0,0,.19,0h.21s.12,0,0,0H291c.06,0,.2,0,.15,0h-.41s.09,0,0,0h.23c.17,0-.43,0-.2,0s.33,0,.21,0h-.19s.28,0,.15,0h-.09c-.15,0,.11,0,.11,0h-.17l.18,0h-.16c.08,0,0,0-.12,0h.07c.12,0,.27,0,.11,0h0c-.06,0,.3,0,.16,0h0c-.06,0,.07,0-.15,0,.21,0-.09,0,.2,0l-.3,0H291c.07,0-.11,0-.19,0l.13,0h-.12c.16,0-.16,0,0,0h.12c-.09,0-.09,0-.05,0h-.11s.05,0,0,0h0c.1,0-.16,0,0,0h0s.05,0,.06,0H291s-.16,0-.14,0h0l.13,0h0c.19,0-.37,0-.11,0h0c.21,0,0,0,.11,0-.38,0,0,0-.21,0h.09c.09,0-.05,0-.07,0h.13c.11,0-.13.05-.21.08s.46,0,.25,0h-.17c.2,0,0,0,.16.06h-.09c-.12,0,0,0,.09,0h-.14c-.07,0,.15,0,0,0h0c.06,0,0,0,.12,0-.07,0,.06,0,0,0,.15,0-.07,0,.14,0-.23,0-.18,0-.08,0h0c-.27,0,.22,0-.13,0l.26,0c-.23,0,0,0-.26,0,.09,0,.29,0,.23,0h-.14c.09,0,0,0,.1,0h.37c-.29,0-.07,0-.45,0h0c.1,0,.19,0,.15,0H291s.26,0,.16,0h-.11s.13,0,.07,0h.1c.06,0,.12,0,.08,0h-.25l.21,0h-.17s.24,0,.13,0h0c-.05,0,.08,0,0,0H291s.23,0,.18,0h0c.27,0-.13,0,0,0h-.12s.07,0,.15,0h-.07c-.06,0,0,0-.07,0h.16c-.39,0,.21,0-.12,0h.14c-.21,0,.23,0,.09,0h-.14s.25,0,.12,0h-.24a2.41,2.41,0,0,1,.29,0H291c.12,0-.1,0,.08,0h0c.17,0-.2,0,0,0l.34,0h-.18c-.07,0-.06,0,0,0h-.13s.18,0,.11,0h-.08c-.11,0,0,0,.1,0h0c.29,0,0,0,0,0h.24c.1,0-.07,0,0,0h.09c.12,0-.16,0,0,0h-.18c.14,0-.07,0,.18,0h-.17c.26,0,0,0,.08,0h.18c-.23,0,0,0,0,0s-.08,0-.14,0l.17,0h0a.55.55,0,0,1-.19,0h.23s-.16,0-.07,0h-.08s0,0,0,0h.14a.67.67,0,0,0-.18,0h0c-.15,0,.08,0,0,0h0l-.14,0h.15s-.09,0,0,0h.06s.12,0,0,0c.13,0,.16,0,.12,0h-.09s0,0,0,0H292c.2,0-.34,0,0,0h0c.09,0-.24,0-.18,0h.06c.09,0,0,0,.06,0h-.1c.07,0-.11,0-.14,0s.22,0,.14,0h.21c-.11,0,.08,0,.1,0h-.33c.06,0-.06,0,.09,0-.05,0,.16,0,.18,0s0,0,0,0h0c.14,0-.18,0-.17,0h-.07c.07,0-.05,0,0,0h-.06c-.16,0,.16,0,.06,0h.21c-.12,0,.12,0,0,0h-.41c.18,0-.1,0,0,0h.3c.13,0-.15,0-.08,0h-.05c-.12,0,0,0-.06,0H292c.05,0-.28,0-.25,0h.2c.06,0-.13,0,0,0h-.27c.31,0,0,0,.24,0l-.07,0h0c.09,0-.28,0-.18,0h.15c.32,0,0,0,.15,0h0c.11,0-.12,0-.1,0h0l-.27,0h.23c.18,0,0,0,0,0H292s-.22,0-.21,0h-.06c-.19,0,.11,0,0,0h.2l-.23,0,.31,0s0,0-.11,0h0l-.23,0c.38,0,.1,0,.39,0-.14,0,.06,0,0,0h-.31s0,0,0,0H292c-.16,0,.26,0,.1,0h.1a.66.66,0,0,0-.24,0h.14s-.26,0-.11,0h.07s-.14,0-.07,0h.08c.1,0-.2,0-.26,0a2.09,2.09,0,0,0,.33,0h0s-.18,0-.27,0c.24,0,.1,0,.23,0H292s-.15,0,0,0h0c.2,0,.15,0,.15,0h-.26c.38,0-.14,0,.2,0h0s.05,0,0,0H292s.18,0,0,0h.1s.14,0-.15,0c.19,0,0,0-.06,0h-.06c.07,0-.13,0-.06,0h.06c.09,0-.16,0,0,0h.39c-.1,0-.31,0-.25,0H292c.11,0,.06,0,.06,0h-.2c-.07,0-.13,0-.05,0h.2a1.33,1.33,0,0,0-.32,0h.18a.89.89,0,0,0-.21,0c.08,0,.17,0,.14,0h.06c.29,0-.47,0-.09-.05h-.06c.17,0-.16,0,.11-.07.05,0-.06,0-.15,0h0c-.13,0,.37,0,.13,0h-.1s-.06,0,.06,0h-.11c.06,0,.31,0,.33,0h-1.06c-.11,0,0,0,.05,0H291a1.05,1.05,0,0,1-.19,0H291c-.26,0,0,0-.3,0a1.19,1.19,0,0,1,.24,0h0c-.12,0-.23,0-.15,0Zm.42.16h0Zm0,0h0Zm1,0h0Z" transform="translate(-0.5 0)"/>
      <path class="cls-6" d="M291.89,228.95h0Z" transform="translate(-0.5 0)"/>
      <path class="cls-6" d="M291.69,230.16h0Z" transform="translate(-0.5 0)"/>
      <polygon class="cls-6" points="290.33 229.17 290.37 229.17 290.34 229.16 290.33 229.17"/>
      <path class="cls-6" d="M291.2,230.24h0Z" transform="translate(-0.5 0)"/>
      <path class="cls-6" d="M291.17,230.27h0Z" transform="translate(-0.5 0)"/>
      <path class="cls-6" d="M291.1,230.29h0Z" transform="translate(-0.5 0)"/>
      <path class="cls-6" d="M290.94,229.9h0Z" transform="translate(-0.5 0)"/>
      <path class="cls-6" d="M291.26,230h0Z" transform="translate(-0.5 0)"/>
      <polygon class="cls-6" points="290.27 229.77 290.27 229.77 290.27 229.77 290.27 229.77"/>
      <path class="cls-6" d="M291.2,230s0,0,0,0S291.22,230,291.2,230Z" transform="translate(-0.5 0)"/>
      <path class="cls-6" d="M291,230.4h0Z" transform="translate(-0.5 0)"/>
      <path class="cls-6" d="M291.05,230.4h0Z" transform="translate(-0.5 0)"/>
      <path class="cls-6" d="M291.11,230.4h0Z" transform="translate(-0.5 0)"/>
      <path class="cls-6" d="M291.1,230.37h0Z" transform="translate(-0.5 0)"/>
      <path class="cls-6" d="M291.09,230.36h0C291,230.36,291.17,230.36,291.09,230.36Z" transform="translate(-0.5 0)"/>
      <path class="cls-6" d="M291.72,230.32h.1C292,230.31,291.7,230.33,291.72,230.32Z" transform="translate(-0.5 0)"/>
      <path class="cls-6" d="M291.8,230.29h0Z" transform="translate(-0.5 0)"/>
      <path class="cls-6" d="M291.8,230.1h0Z" transform="translate(-0.5 0)"/>
      <polygon class="cls-6" points="290.64 230.07 290.56 230.07 290.67 230.07 290.64 230.07"/>
      <polygon class="cls-6" points="291.55 230.05 291.57 230.05 291.52 230.04 291.55 230.05"/>
      <path class="cls-6" d="M292,229.74h0Z" transform="translate(-0.5 0)"/>
      <path class="cls-6" d="M291.84,229.6c.08,0,.13,0,.05,0Z" transform="translate(-0.5 0)"/>
      <polygon class="cls-6" points="291.6 229.2 291.65 229.21 291.61 229.2 291.6 229.2"/>
    </g>
  </g>
  <path class="cls-7" d="M292.2,214.88s5.87-4,10.56,0C298.07,217.52,292.2,214.88,292.2,214.88Z" transform="translate(-0.5 0)"/>
  <path class="cls-7" d="M290.88,225.44s7.92,2.64,11.88,0V216.2H290.88Z" transform="translate(-0.5 0)"/>
  <path class="cls-8" d="M292.2,220.16a18.26,18.26,0,0,0,9.24,2.64" transform="translate(-0.5 0)"/>
</svg>
