<svg xmlns="http://www.w3.org/2000/svg" viewBox="0 0 28.22 20.81">
  <defs>
    <style>
      .cls-1 {
        fill: #fff;
      }
    </style>
  </defs>
  <title>Fichier 2</title>
  <g id="Calque_2" data-name="Calque 2">
    <g id="Calque_1-2" data-name="Calque 1">
      <path class="cls-1" d="M12.31,2.81,8.64,8.59a5.65,5.65,0,0,1,2.74,2.11,6.16,6.16,0,0,1,1.08,3.67,6.37,6.37,0,0,1-1.8,4.56,5.83,5.83,0,0,1-4.39,1.89,6,6,0,0,1-4.43-1.88A6.26,6.26,0,0,1,0,14.39a6.38,6.38,0,0,1,.47-2.51A13.53,13.53,0,0,1,1.8,9.52L8.06,0Zm15.77,0L24.41,8.59a5.64,5.64,0,0,1,2.74,2.11,6.16,6.16,0,0,1,1.08,3.67,6.37,6.37,0,0,1-1.8,4.56A5.83,5.83,0,0,1,22,20.81a6,6,0,0,1-4.43-1.88,6.26,6.26,0,0,1-1.84-4.54,6.38,6.38,0,0,1,.47-2.51,13.49,13.49,0,0,1,1.33-2.36L23.83,0Z"/>
    </g>
  </g>
</svg>
