<svg xmlns="http://www.w3.org/2000/svg" viewBox="0 0 28.22 20.3">
  <defs>
    <style>
      .cls-1 {
        fill: #fff;
      }
    </style>
  </defs>
  <title>Fichier 1</title>
  <g id="Calque_2" data-name="Calque 2">
    <g id="Calque_1-2" data-name="Calque 1">
      <path class="cls-1" d="M.14,17.5l3.67-5.62a5.86,5.86,0,0,1-2.7-2.05A5.73,5.73,0,0,1,0,6.26,6,6,0,0,1,1.84,1.84,6,6,0,0,1,6.26,0a5.92,5.92,0,0,1,4.39,1.84,6.1,6.1,0,0,1,1.8,4.43A6.1,6.1,0,0,1,12,8.71,13.06,13.06,0,0,1,10.66,11L4.39,20.3Zm15.77,0,3.67-5.62a5.86,5.86,0,0,1-2.7-2.05,5.73,5.73,0,0,1-1.12-3.56A6,6,0,0,1,17.6,1.84,6,6,0,0,1,22,0a5.92,5.92,0,0,1,4.39,1.84,6.1,6.1,0,0,1,1.8,4.43,6.11,6.11,0,0,1-.47,2.45A13.06,13.06,0,0,1,26.42,11L20.16,20.3Z"/>
    </g>
  </g>
</svg>
